<svg xmlns="http://www.w3.org/2000/svg" width="166.306" height="207.253" viewBox="0 0 166.306 207.253"><defs><style>.a{fill:#30c2b8;}.b{fill:#93e5dd;}.c{fill:#5087ca;}.d{fill:#abd5fd;}.e{fill:#fff;}.f{fill:#7492d8;}.g{fill:#b6d3fc;}.h{fill:#4364a5;}.i,.k,.n,.o,.p,.q,.r,.t{fill:none;}.i{stroke:#395992;}.i,.k,.q,.t{stroke-miterlimit:10;}.j{fill:#416fb6;}.k{stroke:#93e5dd;}.k,.n,.o,.p,.r,.t{stroke-linecap:round;}.k,.t{stroke-width:2px;}.l{fill:#dcaaaa;}.m{fill:#7e7a64;opacity:0.4;isolation:isolate;}.n,.o{stroke:#564937;}.n,.o,.p,.r{stroke-linejoin:round;}.n{stroke-width:0.75px;}.o{stroke-width:0.5px;}.p{stroke:#7ea0de;}.q,.r{stroke:#000;}.s{fill:#46130a;}.t{stroke:#cb4646;}</style></defs><g transform="translate(-273.408 -445.763)"><g transform="translate(365.711 445.763)"><path class="a" d="M370.907,460.706a.65.65,0,0,1-.1.274.543.543,0,0,1-.235.18l-.1.042a.581.581,0,0,1-.552-.059.978.978,0,0,1-.334-.328c.442-.175.881-.353,1.317-.54a.315.315,0,0,1,.005.053A1.572,1.572,0,0,1,370.907,460.706Z" transform="translate(-361.56 -445.137)"/><path class="a" d="M372.356,458.556a.9.9,0,0,1,.3.285c-.446.2-.9.4-1.341.591,0-.035-.005-.069-.007-.1a1.356,1.356,0,0,1,.028-.368.541.541,0,0,1,.126-.251.665.665,0,0,1,.237-.159l.1-.042A.622.622,0,0,1,372.356,458.556Z" transform="translate(-361.486 -445.215)"/><path class="a" d="M373.558,445.763a39.731,39.731,0,0,1-11.666,4.94c.562,9.392,5.44,17.738,10.766,25.215a76.747,76.747,0,0,0,11.127-5.174C378.883,463.037,375,454.849,373.558,445.763Zm.476,14.685a2.662,2.662,0,0,1-.086.832l-.625-.1a2.542,2.542,0,0,0,.056-.356,3.808,3.808,0,0,0,.015-.392,3.189,3.189,0,0,0-.043-.377.363.363,0,0,0-.02-.075c-.5.224-1,.45-1.5.664.021.136.036.264.045.39a1.931,1.931,0,0,1-.026.562,1.09,1.09,0,0,1-.214.458,1.144,1.144,0,0,1-.456.33l-.111.049a1.186,1.186,0,0,1-.479.092,1.154,1.154,0,0,1-.5-.119,1.526,1.526,0,0,1-.468-.365,1.769,1.769,0,0,1-.267-.38c-.273.107-.549.214-.823.317-.084-.254-.123-.377-.209-.626.26-.1.521-.2.781-.3a2.921,2.921,0,0,1-.085-.412,2.4,2.4,0,0,1,.028-.739l.594.088a2,2,0,0,0-.027.6,1.573,1.573,0,0,0,.046.244c.492-.194.986-.4,1.472-.6a3.326,3.326,0,0,1-.046-.541,1.724,1.724,0,0,1,.087-.556.971.971,0,0,1,.241-.383,1.357,1.357,0,0,1,.388-.247l.111-.049a1.205,1.205,0,0,1,1.11.059,1.519,1.519,0,0,1,.447.4,2.1,2.1,0,0,1,.147.215c.321-.148.644-.3.966-.453.086.241.128.366.208.618-.3.143-.6.284-.9.421A2.5,2.5,0,0,1,374.033,460.448Z" transform="translate(-361.892 -445.763)"/><g transform="translate(1.749 2.368)"><path class="b" d="M370.907,460.706a.65.65,0,0,1-.1.274.543.543,0,0,1-.235.18l-.1.042a.581.581,0,0,1-.552-.059.978.978,0,0,1-.334-.328c.442-.175.881-.353,1.317-.54a.315.315,0,0,1,.005.053A1.572,1.572,0,0,1,370.907,460.706Z" transform="translate(-363.309 -447.505)"/><path class="b" d="M372.356,458.556a.9.9,0,0,1,.3.285c-.446.2-.9.4-1.341.591,0-.035-.005-.069-.007-.1a1.356,1.356,0,0,1,.028-.368.541.541,0,0,1,.126-.251.665.665,0,0,1,.237-.159l.1-.042A.622.622,0,0,1,372.356,458.556Z" transform="translate(-363.235 -447.583)"/><path class="b" d="M380.808,468.387a61.967,61.967,0,0,1-7.935-19.705.84.84,0,0,1-1.357-.527.6.6,0,0,1-.01-.122,40.218,40.218,0,0,1-6.48,2.681.671.671,0,0,1,.021.118,1.765,1.765,0,0,1-1.4,1.612.82.82,0,0,0-.08.021c1,7.254,4.377,13.766,8.277,19.861.026-.009.049-.023.073-.029a2.218,2.218,0,0,1,2.423.994c2.1-.864,4.162-1.784,6.2-2.79A1.444,1.444,0,0,1,380.808,468.387Zm-9.006-7.448a1.931,1.931,0,0,1-.026.562,1.09,1.09,0,0,1-.214.458,1.144,1.144,0,0,1-.456.33l-.111.049a1.186,1.186,0,0,1-.479.092,1.154,1.154,0,0,1-.5-.119,1.526,1.526,0,0,1-.468-.365,1.769,1.769,0,0,1-.267-.38c-.273.107-.549.214-.823.317-.084-.254-.123-.377-.209-.626.26-.1.521-.2.781-.3a2.921,2.921,0,0,1-.085-.412,2.4,2.4,0,0,1,.028-.739l.594.088a2,2,0,0,0-.027.6,1.573,1.573,0,0,0,.046.244c.492-.194.986-.4,1.472-.6a3.326,3.326,0,0,1-.046-.541,1.724,1.724,0,0,1,.087-.556.971.971,0,0,1,.241-.383,1.357,1.357,0,0,1,.388-.247l.111-.049a1.205,1.205,0,0,1,1.11.059,1.519,1.519,0,0,1,.447.4,2.1,2.1,0,0,1,.147.215c.321-.148.644-.3.966-.453.086.241.128.366.208.618-.3.143-.6.284-.9.421a2.5,2.5,0,0,1,.139.728,2.662,2.662,0,0,1-.086.832l-.625-.1a2.542,2.542,0,0,0,.056-.356,3.808,3.808,0,0,0,.015-.392,3.189,3.189,0,0,0-.043-.377.363.363,0,0,0-.02-.075c-.5.224-1,.45-1.5.664C371.779,460.684,371.794,460.813,371.8,460.939Z" transform="translate(-363.569 -448.033)"/></g><path class="a" d="M370.907,460.706a.65.65,0,0,1-.1.274.543.543,0,0,1-.235.18l-.1.042a.581.581,0,0,1-.552-.059.978.978,0,0,1-.334-.328c.442-.175.881-.353,1.317-.54a.315.315,0,0,1,.005.053A1.572,1.572,0,0,1,370.907,460.706Z" transform="translate(-361.56 -445.137)"/><path class="a" d="M372.356,458.556a.9.9,0,0,1,.3.285c-.446.2-.9.4-1.341.591,0-.035-.005-.069-.007-.1a1.356,1.356,0,0,1,.028-.368.541.541,0,0,1,.126-.251.665.665,0,0,1,.237-.159l.1-.042A.622.622,0,0,1,372.356,458.556Z" transform="translate(-361.486 -445.215)"/><path class="a" d="M374.86,458.2a4.165,4.165,0,1,0-1.14,6.135A4.432,4.432,0,0,0,374.86,458.2ZM373.1,460.75a2.542,2.542,0,0,0,.056-.356,3.808,3.808,0,0,0,.015-.392,3.189,3.189,0,0,0-.043-.377.363.363,0,0,0-.02-.075c-.5.224-1,.45-1.5.664.021.136.036.264.045.39a1.931,1.931,0,0,1-.026.562,1.09,1.09,0,0,1-.214.458,1.144,1.144,0,0,1-.456.33l-.111.049a1.186,1.186,0,0,1-.479.092,1.154,1.154,0,0,1-.5-.119,1.526,1.526,0,0,1-.468-.365,1.769,1.769,0,0,1-.267-.38c-.273.107-.549.214-.823.317-.084-.254-.123-.377-.209-.626.26-.1.521-.2.781-.3a2.921,2.921,0,0,1-.085-.412,2.4,2.4,0,0,1,.028-.739l.594.088a2,2,0,0,0-.027.6,1.573,1.573,0,0,0,.046.244c.492-.194.986-.4,1.472-.6a3.326,3.326,0,0,1-.046-.541,1.724,1.724,0,0,1,.087-.556.971.971,0,0,1,.241-.383,1.357,1.357,0,0,1,.388-.247l.111-.049a1.205,1.205,0,0,1,1.11.059,1.519,1.519,0,0,1,.447.4,2.1,2.1,0,0,1,.147.215c.321-.148.644-.3.966-.453.086.241.128.366.208.618-.3.143-.6.284-.9.421a2.5,2.5,0,0,1,.139.728,2.662,2.662,0,0,1-.086.832Z" transform="translate(-361.67 -445.331)"/><path class="a" d="M374.955,468.3a.93.93,0,0,0,.322-1.378,1.221,1.221,0,0,0-1.465-.6.906.906,0,0,0-.368,1.355A1.3,1.3,0,0,0,374.955,468.3Z" transform="translate(-361.4 -444.879)"/><path class="a" d="M368.591,453.01a1.143,1.143,0,0,0,.765-1.182c-.089-.444-.557-.629-1.077-.425a1.174,1.174,0,0,0-.812,1.16A.778.778,0,0,0,368.591,453.01Z" transform="translate(-361.652 -445.523)"/><path class="b" d="M373.767,459.927a2.5,2.5,0,0,0-.139-.728c.3-.138.6-.279.9-.421-.079-.251-.122-.377-.208-.618-.322.152-.645.3-.966.453a2.1,2.1,0,0,0-.147-.215,1.52,1.52,0,0,0-.447-.4,1.205,1.205,0,0,0-1.11-.059l-.111.049a1.358,1.358,0,0,0-.388.247.972.972,0,0,0-.241.383,1.723,1.723,0,0,0-.087.556,3.323,3.323,0,0,0,.046.541c-.486.205-.98.409-1.472.6a1.569,1.569,0,0,1-.046-.244,2,2,0,0,1,.027-.6l-.594-.088a2.4,2.4,0,0,0-.028.739,2.921,2.921,0,0,0,.085.412c-.261.1-.522.2-.781.3.086.249.124.372.209.626.274-.1.55-.21.823-.317a1.769,1.769,0,0,0,.267.38,1.525,1.525,0,0,0,.468.365,1.154,1.154,0,0,0,.5.119,1.186,1.186,0,0,0,.479-.092l.111-.049a1.144,1.144,0,0,0,.456-.33,1.089,1.089,0,0,0,.214-.458,1.93,1.93,0,0,0,.026-.562c-.008-.126-.024-.255-.045-.39.5-.215,1-.44,1.5-.664a.363.363,0,0,1,.02.075,3.189,3.189,0,0,1,.043.377,3.817,3.817,0,0,1-.015.392,2.547,2.547,0,0,1-.056.356l.625.1A2.662,2.662,0,0,0,373.767,459.927Zm-2.795.507a1.573,1.573,0,0,1,0,.378.651.651,0,0,1-.1.274.543.543,0,0,1-.235.18l-.1.042a.581.581,0,0,1-.552-.059.978.978,0,0,1-.334-.328c.442-.175.881-.353,1.317-.54A.312.312,0,0,1,370.973,460.434Zm.486-.974c0-.035-.005-.069-.007-.1a1.357,1.357,0,0,1,.028-.368.542.542,0,0,1,.126-.251.665.665,0,0,1,.237-.159l.1-.042a.622.622,0,0,1,.555.044.9.9,0,0,1,.3.285C372.354,459.07,371.9,459.269,371.459,459.459Z" transform="translate(-361.626 -445.242)"/></g><g transform="translate(381.533 447.573)"><path class="c" d="M391.53,447.5c-3.381,8.868-7.8,17.179-14.47,24.021a41.37,41.37,0,0,1,11.353,6.653c7.476-6.29,11.41-15.534,14.334-24.616A79.358,79.358,0,0,0,391.53,447.5Z" transform="translate(-377.06 -447.498)"/><g transform="translate(2.894 2.731)"><path class="d" d="M393.255,450.116c2.1,1.076,4.147,2.219,6.175,3.435a2.309,2.309,0,0,0,.673,2.638l.069.04c-2.659,7.031-5.994,13.891-11.416,19.225a.864.864,0,0,0-.067-.056,1.825,1.825,0,0,0-2.209-.163.847.847,0,0,0-.086.088,41.686,41.686,0,0,0-6.255-3.737.628.628,0,0,0,.1-.084.872.872,0,0,0-.4-1.458,64.5,64.5,0,0,0,11.5-18.839,1.5,1.5,0,0,0,1.887-.966C393.234,450.2,393.245,450.158,393.255,450.116Z" transform="translate(-379.834 -450.116)"/></g><path class="c" d="M386.434,461.787a4.328,4.328,0,1,0,5.822-2.857A4.606,4.606,0,0,0,386.434,461.787Z" transform="translate(-376.662 -447.015)"/><path class="c" d="M394.707,455.09a.967.967,0,0,0-1.292.446.985.985,0,0,0-.056.142,1.268,1.268,0,0,0,.412,1.589.94.94,0,0,0,1.359-.533A1.349,1.349,0,0,0,394.707,455.09Z" transform="translate(-376.362 -447.175)"/><path class="c" d="M386.2,469.108a.97.97,0,0,0-1.371.048.952.952,0,0,0-.092.114,1.276,1.276,0,0,0-.076,1.644.944.944,0,0,0,1.335.029.892.892,0,0,0,.12-.139A1.35,1.35,0,0,0,386.2,469.108Z" transform="translate(-376.743 -446.577)"/><g transform="translate(11.189 12.65)"><path class="e" d="M390.689,462.7l-.681-.347-2.222,1.98.681.347.528.27.681.347.528.27.681.347,2.222-1.98-.681-.347-1.563,1.392-.528-.27,1.563-1.392-.681-.347-1.563,1.392-.528-.27Z" transform="translate(-387.786 -459.506)"/><g transform="translate(0)"><path class="e" d="M391.755,463.414l.171-2.849-.681-.347-.171,2.849Z" transform="translate(-387.644 -459.599)"/><path class="e" d="M392.914,464.005l.171-2.849-.681-.347-.171,2.849Z" transform="translate(-387.594 -459.573)"/><path class="e" d="M390.179,459.624l-2.051,2.067-.342,2.763,2.2-1.963h0l.019-.018.049.025.632.322.171-2.849-.589-.3h0Z" transform="translate(-387.786 -459.624)"/></g></g></g><g transform="translate(360.326 453.737)"><path class="c" d="M367.947,453.407c3.381,8.868,7.8,17.179,14.47,24.021a41.368,41.368,0,0,0-11.353,6.653c-7.476-6.291-11.411-15.534-14.334-24.616A79.192,79.192,0,0,1,367.947,453.407Z" transform="translate(-356.73 -453.407)"/><g transform="translate(2.455 2.731)"><path class="d" d="M366,456.025c-2.1,1.076-4.148,2.219-6.175,3.434a2.31,2.31,0,0,1-.673,2.639l-.069.04c2.659,7.031,5.993,13.891,11.416,19.225a.7.7,0,0,1,.067-.056,1.825,1.825,0,0,1,2.209-.163.971.971,0,0,1,.086.088,41.639,41.639,0,0,1,6.255-3.737.625.625,0,0,1-.1-.085.872.872,0,0,1,.4-1.458,64.5,64.5,0,0,1-11.5-18.839,1.5,1.5,0,0,1-1.887-.966A1.169,1.169,0,0,1,366,456.025Z" transform="translate(-359.083 -456.025)"/></g><path class="c" d="M372.337,467.7a4.328,4.328,0,1,1-5.822-2.857A4.606,4.606,0,0,1,372.337,467.7Z" transform="translate(-356.423 -452.924)"/><path class="c" d="M363.791,461a.966.966,0,0,1,1.292.446.977.977,0,0,1,.055.142,1.267,1.267,0,0,1-.411,1.589.945.945,0,0,1-1.36-.533A1.348,1.348,0,0,1,363.791,461Z" transform="translate(-356.449 -453.084)"/><path class="c" d="M372.3,475.017a.97.97,0,0,1,1.371.048,1.07,1.07,0,0,1,.092.114,1.276,1.276,0,0,1,.076,1.644.946.946,0,0,1-1.336.029.958.958,0,0,1-.12-.139A1.349,1.349,0,0,1,372.3,475.017Z" transform="translate(-356.069 -452.486)"/><g transform="translate(9.006 12.65)"><path class="e" d="M367.945,468.613l.681-.347,2.222,1.98-.681.347-.528.27-.681.347-.528.27-.681.347-2.222-1.98.681-.347,1.563,1.392.528-.27-1.563-1.393.681-.347,1.563,1.392.528-.27Z" transform="translate(-365.356 -465.415)"/><path class="e" d="M366.693,469.323l-.171-2.849.681-.347.171,2.849Z" transform="translate(-365.313 -465.508)"/><path class="e" d="M365.535,469.914l-.171-2.849.681-.347.171,2.849Z" transform="translate(-365.363 -465.482)"/><path class="e" d="M368.362,465.533l2.051,2.067.342,2.763-2.2-1.963h0l-.019-.018-.049.025-.632.323-.171-2.849.589-.3h0Z" transform="translate(-365.263 -465.533)"/></g></g><g transform="translate(373.217 448.811)"><path class="c" d="M376.066,448.685c-.7,9.466-2.546,18.693-6.978,27.161a41.359,41.359,0,0,1,12.784,3.12c5.359-8.17,6.479-18.153,6.676-27.693A79.219,79.219,0,0,0,376.066,448.685Z" transform="translate(-369.088 -448.685)"/><g transform="translate(2.382 2.088)"><path class="d" d="M378.518,450.687c2.324.427,4.609.937,6.9,1.52a2.312,2.312,0,0,0,1.4,2.335l.077.019c-.532,7.5-1.76,15.026-5.427,21.69-.026-.013-.052-.024-.08-.034a1.825,1.825,0,0,0-2.164.477,1.075,1.075,0,0,0-.056.109,41.808,41.808,0,0,0-7.063-1.787.681.681,0,0,0,.069-.108.871.871,0,0,0-.358-1.179.854.854,0,0,0-.446-.1,64.515,64.515,0,0,0,5.617-21.346,1.5,1.5,0,0,0,1.531-1.466C378.521,450.771,378.52,450.729,378.518,450.687Z" transform="translate(-371.371 -450.687)"/></g><path class="c" d="M375.522,463.724a4.329,4.329,0,1,0,4.759-4.406A4.607,4.607,0,0,0,375.522,463.724Z" transform="translate(-368.81 -448.226)"/><path class="c" d="M381.558,454.89a.969.969,0,0,0-1.111.8,1.24,1.24,0,0,0-.013.151,1.269,1.269,0,0,0,.85,1.405.942.942,0,0,0,1.127-.711.954.954,0,0,0,.023-.189A1.35,1.35,0,0,0,381.558,454.89Z" transform="translate(-368.599 -448.418)"/><path class="c" d="M377.426,470.759a.97.97,0,0,0-1.3.438.947.947,0,0,0-.054.136,1.274,1.274,0,0,0,.4,1.6.944.944,0,0,0,1.288-.354.972.972,0,0,0,.075-.168A1.349,1.349,0,0,0,377.426,470.759Z" transform="translate(-368.792 -447.737)"/><g transform="translate(8.381 12.373)"><path class="e" d="M379.88,463.349l-.752-.138-1.561,2.534.752.138.583.107.752.138.583.107.752.138,1.561-2.534-.752-.138-1.1,1.782-.583-.107,1.1-1.782-.752-.138-1.1,1.782-.583-.107Z" transform="translate(-377.103 -460.431)"/><path class="e" d="M381.122,463.7l-.652-2.779-.752-.138.652,2.779Z" transform="translate(-377.01 -460.536)"/><path class="e" d="M382.4,463.933l-.652-2.779-.752-.138.653,2.779Z" transform="translate(-376.955 -460.526)"/><path class="e" d="M378.494,460.546l-1.372,2.568.464,2.745,1.547-2.512h0l.013-.023.054.01.7.128-.652-2.779-.651-.12h0Z" transform="translate(-377.122 -460.546)"/></g></g><g transform="translate(296.645 516.879)"><g transform="translate(0 16.992)"><g transform="translate(0 87.632)"><path class="f" d="M298.29,622.735c1.046-.917,6.687-8.5,6.687-8.5l8.358,7.534s-7.494,14.313-7.551,14.647C305.783,636.412,297.892,639.422,298.29,622.735Z" transform="translate(-295.572 -614.231)"/><path class="g" d="M295.684,621.887c-.011,1.625,2.518,9.322,3.021,10.994a51.74,51.74,0,0,0,3.482,9.057c1.284,2.452,3.456,5.664,5.1,1.842a27.1,27.1,0,0,0,1.718-7.956,19.378,19.378,0,0,1,.717-3.949c.318-.955,1.289-2.069,1.3-3.052.041-3.568-5.357-1.29-7.163-1.949-1.416-.514-3.494-7.992-3.447-8.02C298.544,619.876,295.7,620.289,295.684,621.887Z" transform="translate(-295.684 -614.032)"/></g><path class="h" d="M323.4,530.772l.7,49.5-24.282,38.17L313.882,630.8c2.1-2.866,27.461-35.309,32.705-45.566,3.886-7.58,2.957-17.683,2.962-25.919,0-9.7-.252-19.388-.386-29.092" transform="translate(-295.506 -530.225)"/><path class="i" d="M305.87,621.818l25.174-37.467s.991-19.791.609-24.818" transform="translate(-295.244 -528.96)"/></g><g transform="translate(25.303 115.891)"><path class="f" d="M320.1,639.146c-.232-1.567-.138-10.779-.138-10.779l12.337-3.334s5.179,15.136,5.462,15.392C337.759,640.425,333.719,643.883,320.1,639.146Z" transform="translate(-319.94 -625.033)"/></g><path class="j" d="M310.553,520.43c-.559.389-.9,20.593,4.008,50.007,3.867,23.163,4.418,65.261,4.418,65.261L335,635.468s2.537-22.667,4.373-47.446c1.474-19.9-.521-42.554-2.083-53.082C333.837,511.673,326.554,509.167,310.553,520.43Z" transform="translate(-295.056 -513.936)"/><path class="i" d="M316.8,527.088c-.265-.358-.532.905-.172,1.05-.9,1.2-.963.893-.956,2.523s2.044,2.367,2.12,3.365c.3,3.914-2.827,5.077-2.964,8.834,3.017.493,2.564,2.948,1.234,5.134l1.143,2.889,5.317,29.282-.441,53.181" transform="translate(-294.858 -513.372)"/><line class="i" x2="3.976" y2="5.079" transform="translate(20.566 60.68)"/><path class="g" d="M320.763,642.217c1.619.573,10.187.688,12.034.75a55.122,55.122,0,0,0,10.269-.375c2.891-.444,6.854-1.516,3.6-4.476a28.827,28.827,0,0,0-7.379-4.449,20.17,20.17,0,0,1-3.7-2.07c-.847-.642-1.629-2-2.609-2.346-3.558-1.264-3.134,4.923-4.418,6.507-1,1.238-9.194.755-9.207.7C319.733,638.667,319.172,641.658,320.763,642.217Z" transform="translate(-294.663 -508.967)"/></g><g transform="translate(309.361 485.065)"><path class="g" d="M330.822,483.614c-17.209,1.974-21.61,7.181-22.848,21.263-.379,4.291.454,12.02.3,16.32-.164,4.494-.4,26.879-.4,26.879S323.15,543.5,327.044,543c7.391-.948,13.73-3.5,21.133-4.445,6-.76,1.432-8.776,2.388-13,1.363-6.1,5.468-10.268,9.414-17.173.63-1.1-8.456-15.76-9.651-17.15A21.887,21.887,0,0,0,330.822,483.614Z" transform="translate(-307.874 -483.439)"/></g><g transform="translate(347.956 463.359)"><path class="a" d="M358.36,463.843c-2.815-.093-6.186-.344-6.3-.609.077.183,6.658,13.385,6.658,13.385S323.7,537,365.04,539.43c14.376.845,41.942,5.327,49.577-11.6,3.243-7.192.42-17.589-2.007-24.566-1.619-4.671-15.053-26.827-15.053-26.827l6.388-13.2a48.121,48.121,0,0,0-6.334-.183c-2.25.67-4.127,2.073-6.636,1.755-1.19-.155-2.014-1.056-3.067-1.482-1.827-.748-1.922-.451-3.8.238-2.427.893-5.061,1.594-7.542.492-3.189-1.412-9.552-2.206-12.384-.268-1.808,1.236-4-.754-5.824.059" transform="translate(-344.872 -462.631)"/><path class="k" d="M362.063,476.423c6.272,1.737,28.213,3.938,34.117.9" transform="translate(-344.13 -462.035)"/><path class="k" d="M365.948,466.437a64.38,64.38,0,0,0,4.324,8.648" transform="translate(-343.963 -462.466)"/><path class="k" d="M379.466,474.742v-7.03" transform="translate(-343.379 -462.411)"/><line class="k" y1="8.649" x2="5.402" transform="translate(43.497 5.738)"/><path class="b" d="M385.032,496.111a12.093,12.093,0,0,0-3.521-.634c-.1-1.587-.216-3.186-.343-4.772-1.272-.075-1.908-.1-3.141-.135.125,1.716.25,3.433.363,5.136a11.175,11.175,0,0,0-1.227.29,7.4,7.4,0,0,0-2.582,1.318,6.077,6.077,0,0,0-1.648,2.074,6,6,0,0,0-.543,2.822l.028.585a6.472,6.472,0,0,0,.441,2.177,4.72,4.72,0,0,0,1.307,1.75,8.349,8.349,0,0,0,2.352,1.354,15.892,15.892,0,0,0,2.519.733c.085,2.547.142,5.12.162,7.679a8.525,8.525,0,0,1-1.179-.216,9.778,9.778,0,0,1-2.655-1.164l-1.422,2.52a11.49,11.49,0,0,0,3.274,1.409,13.87,13.87,0,0,0,2.007.335c0,1.35,0,2.7-.008,4.039,1.273.048,1.9.086,3.18.147.013-1.416.013-2.844,0-4.259a8.481,8.481,0,0,0,2.178-.546,7.389,7.389,0,0,0,2.456-1.476,5.562,5.562,0,0,0,1.4-2.039,5.712,5.712,0,0,0,.418-2.318l-.028-.585a5.519,5.519,0,0,0-.694-2.622,5.23,5.23,0,0,0-1.7-1.758,9.216,9.216,0,0,0-2.488-1.1c-.581-.179-1.188-.333-1.835-.475-.1-2.638-.243-5.277-.391-7.917a1.845,1.845,0,0,1,.376.046,14.663,14.663,0,0,1,1.771.46,18.064,18.064,0,0,1,1.74.746,11.566,11.566,0,0,1,1.5.871l1.528-2.649A12.994,12.994,0,0,0,385.032,496.111Zm-2.566,13.474a7.268,7.268,0,0,1,1.7.654,3.193,3.193,0,0,1,1.062.941,2.653,2.653,0,0,1,.4,1.371l.017.52a2.812,2.812,0,0,1-1.225,2.381,4.738,4.738,0,0,1-2.056.937c-.024-2.3-.061-4.586-.149-6.873A1.377,1.377,0,0,1,382.466,509.586Zm-3.54-3.882c-.169-.043-.323-.1-.465-.139a6.547,6.547,0,0,1-1.61-.769,2.608,2.608,0,0,1-.918-1,3.225,3.225,0,0,1-.3-1.344l-.017-.519a2.985,2.985,0,0,1,1.161-2.421,4.317,4.317,0,0,1,1.808-.876C378.723,501,378.837,503.364,378.926,505.7Z" transform="translate(-343.685 -461.425)"/></g><g transform="translate(320.823 456.407)"><path class="l" d="M335.836,484.548c.338,5.188-10.925,5.513-11.241.739,0-.03-.458-7.069-.458-7.069a5.3,5.3,0,0,1,4.933-5.635l.666-.042a5.3,5.3,0,0,1,5.634,4.933v.005Z" transform="translate(-318.634 -455.252)"/><path class="m" d="M324.228,478.409s7.225,1.647,9.336-.873l-8.676,8.452Z" transform="translate(-318.63 -455.036)"/><path class="l" d="M336.633,474.778c.259,3.914-2.223,6.155-6.142,6.414l-.894.057c-3.918.259-6.668-1.635-6.924-5.551l-1.183-9.451a7.1,7.1,0,0,1,6.616-7.547h.009l.893-.062a7.1,7.1,0,0,1,7.556,6.618v0Z" transform="translate(-318.749 -455.852)"/><path class="h" d="M326.742,457.975a8.538,8.538,0,0,0-7.772,6.567,7.408,7.408,0,0,0,1.605,6c.514.483,1.51.167,1.964.917.119.191.489,1.818.065,1.791a4.151,4.151,0,0,0,.755,0,6.256,6.256,0,0,1,.836-2.121c.692-.652,1.425-.489,2.337-.756A12.319,12.319,0,0,0,331.489,467c.748-.755,2.325-3.416,3.519-3.342.8.045,1.947,5.429,1.472,6.357,1.663-3.239,7.514-10.878,1.714-13.637-2.164-1.03-7.553-.041-8.826,2.1A6.685,6.685,0,0,0,326.742,457.975Z" transform="translate(-318.861 -455.966)"/><g transform="translate(0.771 14.282)"><path class="l" d="M323.252,470.98s-1.346-2.21-2.984-.916-.239,4.333,3.991,4.549" transform="translate(-319.6 -469.657)"/><line class="n" x2="1.065" y2="0.866" transform="translate(1.748 1.74)"/></g></g><g transform="translate(319.197 519.435)"><g transform="translate(30.332 11.422)"><path class="l" d="M350.852,527.45c-.283-.478,6.1.694,6.964,1.046,1.647.675,3.263,2.343,4.668,3.441,1.735,1.35,2.131,1.552,4.354,1.426,1.364-.082,6.008-1.791,5.5.836-.852,4.409-6.287,7.209-8.836,6.881a89.775,89.775,0,0,1-16.988-4.418C345.457,536.187,350.852,527.45,350.852,527.45Z" transform="translate(-346.38 -527.337)"/><path class="o" d="M370.97,533.378s-3.767,1.791-5.827,1.665a5.353,5.353,0,0,1-3.255-1.359" transform="translate(-345.711 -527.076)"/><path class="o" d="M370.837,535.35s-2.961,1.9-4.878,1.822a11.08,11.08,0,0,1-4.086-1.265" transform="translate(-345.712 -526.991)"/><path class="o" d="M370.127,536.739s-2.959,1.9-4.872,1.824a11.015,11.015,0,0,1-4.086-1.264" transform="translate(-345.742 -526.931)"/><path class="l" d="M356.2,528.437c3.781.38,8.016-2.251,8.41.581.206,1.552-2.974,1.432-4.27,2.552" transform="translate(-345.956 -527.322)"/></g><path class="g" d="M317.3,529.793a14.429,14.429,0,0,0,2.915,1.326c2.524.846,30.018,9.126,30.286,7.81l4.215-12.715c.17-.836-25.233-9.827-25.233-9.827" transform="translate(-317.303 -516.387)"/></g><g transform="translate(401.441 480.71)"><path class="l" d="M408.228,489.72s-2.676,2.822-4.818,2.5-3.11-2.1,2.089-5.024C407.855,485.868,409.789,488.123,408.228,489.72Z" transform="translate(-395.905 -478.939)"/><path class="l" d="M406.378,487.21s-2.67,2.826-4.818,2.5-3.111-2.105,2.1-5.032C406.014,483.361,407.937,485.619,406.378,487.21Z" transform="translate(-395.984 -479.048)"/><path class="l" d="M404.534,484.692s-2.673,2.832-4.817,2.5-3.115-2.1,2.09-5.02C404.167,480.851,406.1,483.11,404.534,484.692Z" transform="translate(-396.064 -479.156)"/><path class="l" d="M402.681,482.19s-2.669,2.821-4.811,2.5-3.116-2.095,2.087-5.02C402.324,478.337,404.25,480.6,402.681,482.19Z" transform="translate(-396.144 -479.264)"/><path class="n" d="M402.048,489.728s.743-1.488,4.625-3.021" transform="translate(-395.889 -478.943)"/><path class="n" d="M400.246,487.185s.748-1.484,4.625-3.019" transform="translate(-395.967 -479.053)"/><path class="n" d="M398.417,484.8s.75-1.5,4.623-3.02" transform="translate(-396.046 -479.155)"/><path class="n" d="M396.428,482.375s-.123-1.076,3.752-2.594" transform="translate(-396.132 -479.242)"/><path class="n" d="M406.118,491.266a2.315,2.315,0,0,0,1.308-1.292" transform="translate(-395.713 -478.802)"/></g><path class="p" d="M311.186,505.693s0-1.432,1.433,11.909c.905,8.465,8.021,14.432,8.021,14.432l6.265,1.759" transform="translate(1.63 2.585)"/><path class="p" d="M353.736,525.876l-22.384-9.049-1.91-15.241" transform="translate(2.418 2.409)"/><path class="q" d="M300.318,500.2c.867-6.662,4.882-12.5,9.86-16.912" transform="translate(1.161 1.62)"/><path class="q" d="M297.4,494.36a18.742,18.742,0,0,1,6.567-11.274" transform="translate(1.036 1.611)"/><g transform="translate(409.6 459.416)"><line class="r" y1="2.119" x2="15.261" transform="translate(14.29 29.99)"/><line class="r" y1="8.849" x2="14.106" transform="translate(10.634 16.086)"/><line class="r" y1="14.16" x2="4.664"/><line class="r" y1="6.04" x2="4.379" transform="translate(5.662 12.035)"/></g><g transform="translate(330.805 470.027)"><g transform="translate(1.849)"><g transform="translate(4.564 2.271)"><path class="s" d="M335.269,473.276a.621.621,0,0,0,.5-.269,1.647,1.647,0,0,0,.216-1.29l-.055-.151a.474.474,0,0,0-.161-.217.669.669,0,0,0-.979.149,1.633,1.633,0,0,0-.147,1.266A.668.668,0,0,0,335.269,473.276Z" transform="translate(-334.578 -471.2)"/></g><g transform="translate(0 2.402)"><path class="s" d="M330.877,473.4a.637.637,0,0,0,.5-.264,1.672,1.672,0,0,0,.258-1.263l-.057-.171a.491.491,0,0,0-.145-.2.706.706,0,0,0-.452-.173.655.655,0,0,0-.541.293,1.653,1.653,0,0,0-.19,1.243C330.416,473.349,330.743,473.4,330.877,473.4Z" transform="translate(-330.203 -471.326)"/></g><g transform="translate(1.759)"><path class="s" d="M332.459,475.375l-.144,0a.3.3,0,0,1,0-.606,1.3,1.3,0,0,0,1.073-.354c-.361-1.165-.855-2.956-.028-4.161a2.956,2.956,0,0,1,2.393-1.111.293.293,0,0,1,.32.284.306.306,0,0,1-.284.321,2.384,2.384,0,0,0-1.933.85c-.708,1.028-.14,2.838.163,3.813a.315.315,0,0,1-.079.317A1.88,1.88,0,0,1,332.459,475.375Z" transform="translate(-331.884 -469.018)"/><path class="s" d="M332.32,475.511l.146-.005a2.006,2.006,0,0,0,1.566-.678.445.445,0,0,0,.114-.443c-.3-.962-.852-2.732-.18-3.705a2.269,2.269,0,0,1,1.835-.8.43.43,0,1,0-.068-.856,3.045,3.045,0,0,0-2.472,1.164c-.88,1.281-.319,3.2-.016,4.189a1.157,1.157,0,0,1-.908.271.43.43,0,1,0-.017.86Zm3.48-6.362v.126a.179.179,0,0,1-.017.355,2.5,2.5,0,0,0-2.028.905c-.741,1.073-.166,2.922.143,3.914a.2.2,0,0,1-.043.2,1.749,1.749,0,0,1-1.394.607h-.048c-.031,0-.063,0-.1,0a.176.176,0,1,1,0-.352,1.44,1.44,0,0,0,1.159-.386l.059-.054-.024-.079c-.286-.92-.878-2.836-.044-4.05a2.828,2.828,0,0,1,2.295-1.057Z" transform="translate(-331.889 -469.023)"/></g></g><path class="s" d="M332.069,478.039c.047,0,.095,0,.142,0A2.549,2.549,0,0,0,334.3,476.9a.477.477,0,1,0-.818-.49,1.626,1.626,0,0,1-1.315.674,1.864,1.864,0,0,1-1.713-.828.478.478,0,0,0-.772.564A2.925,2.925,0,0,0,332.069,478.039Z" transform="translate(-328.381 -468.719)"/><path class="s" d="M328.91,470.831a.485.485,0,0,0,.223-.056c.9-.476,1.713-.826,2.547-.257a.478.478,0,0,0,.536-.791,3.227,3.227,0,0,0-3.532.2.478.478,0,0,0,.225.9Z" transform="translate(-328.431 -469.012)"/></g><g transform="translate(273.408 574.938)"><g transform="translate(0 0)"><path class="a" d="M303.718,579.967c-4.187,10.081-18.375,6.566-22.2,16.994q-4.053-5.19-8.106-10.375c4.185-10.081,18.375-6.563,22.206-16.992Q299.665,574.781,303.718,579.967Z" transform="translate(-273.408 -569.594)"/><g transform="translate(2.344 3.855)"><path class="b" d="M301.246,578.946q-2.2-2.827-4.413-5.656a.931.931,0,0,1-1.685.21c-.017-.023-.031-.046-.045-.064-5.026,6.269-14.178,5.25-19.449,11.213a.633.633,0,0,1,.05.055,2.444,2.444,0,0,1,.1,2.5c-.025.052-.053.1-.079.144q2.216,2.834,4.427,5.668c.02-.055.044-.109.067-.16a.942.942,0,0,1,1.7-.188c5.112-6.158,14.26-5.138,19.447-11.2A2.525,2.525,0,0,1,301.246,578.946Z" transform="translate(-275.655 -573.29)"/></g><path class="a" d="M296.3,578.186a1.1,1.1,0,0,1-.112,1.481.989.989,0,0,1-1.409-.173,1.021,1.021,0,0,1,.172-1.408A.91.91,0,0,1,296.3,578.186Z" transform="translate(-272.495 -569.238)"/><path class="a" d="M280.506,585.826a1.072,1.072,0,0,1-.146,1.439.866.866,0,0,1-1.322-.07,1.165,1.165,0,0,1,.081-1.516A.948.948,0,0,1,280.506,585.826Z" transform="translate(-273.175 -568.91)"/><path class="a" d="M292.889,581.06a3.355,3.355,0,0,1-1.819,5.431c-2.549.788-5.85.2-7.586-1.961a3.348,3.348,0,0,1,1.832-5.416C287.861,578.326,291.158,578.894,292.889,581.06Z" transform="translate(-273.008 -569.198)"/><g transform="translate(12.481 10.509)"><path class="b" d="M291.057,583.822a.963.963,0,0,0,.064-.539,1.159,1.159,0,0,0-.288-.561l-.09-.1a1.6,1.6,0,0,0-.413-.344,1.483,1.483,0,0,0-.542-.185,2.762,2.762,0,0,0-.717-.005,5.437,5.437,0,0,0-.811.156c-.334-.461-.666-.922-1.017-1.388a2.334,2.334,0,0,1,.315-.089,3.094,3.094,0,0,1,.755-.06l-.05-.6a3.861,3.861,0,0,0-.927.08,3.261,3.261,0,0,0-.493.142c-.172-.216-.346-.438-.527-.658-.284.108-.346.052-.732.212q.308.38.6.758a2.027,2.027,0,0,0-.44.34,1.328,1.328,0,0,0-.328.515.913.913,0,0,0-.02.509,1.139,1.139,0,0,0,.247.456l.09.1a1.437,1.437,0,0,0,.532.4,1.817,1.817,0,0,0,.626.144,3.119,3.119,0,0,0,.709-.053c.108-.02.221-.045.333-.07.35.479.7.957,1.06,1.435-.078.015-.159.028-.239.04-.156.022-.322.036-.487.046s-.321,0-.462-.005l.049.63a4.263,4.263,0,0,0,1.058-.037,2.9,2.9,0,0,0,.511-.116c.209.266.419.53.639.8.323-.185.376-.142.642-.277-.218-.261-.427-.524-.626-.782a2.972,2.972,0,0,0,.592-.4A1.44,1.44,0,0,0,291.057,583.822Zm-3.988-1.356a1.025,1.025,0,0,1-.373-.06.7.7,0,0,1-.286-.2l-.079-.092a.492.492,0,0,1-.074-.554.967.967,0,0,1,.338-.387c.318.417.625.835.928,1.25A2.231,2.231,0,0,1,287.069,582.466Zm3.184,1.183a1.122,1.122,0,0,1-.578.537c-.349-.463-.68-.923-1.014-1.384.128-.032.243-.053.347-.07a2.26,2.26,0,0,1,.466-.025.851.851,0,0,1,.346.09.887.887,0,0,1,.261.21l.078.092A.51.51,0,0,1,290.253,583.649Z" transform="translate(-285.373 -579.668)"/></g></g></g><g transform="translate(383.868 586.254)"><path class="a" d="M388.312,595.384a.66.66,0,0,1-.1.275.553.553,0,0,1-.236.18l-.1.042a.579.579,0,0,1-.551-.059.979.979,0,0,1-.334-.328c.442-.175.881-.353,1.316-.54a.234.234,0,0,1,.005.052A1.469,1.469,0,0,1,388.312,595.384Z" transform="translate(-378.966 -579.816)"/><path class="a" d="M389.761,593.235a.906.906,0,0,1,.3.285c-.448.2-.9.4-1.342.591-.005-.035-.006-.069-.008-.1a1.353,1.353,0,0,1,.029-.368.531.531,0,0,1,.125-.251.668.668,0,0,1,.238-.159l.1-.042A.616.616,0,0,1,389.761,593.235Z" transform="translate(-378.892 -579.894)"/><path class="a" d="M390.963,580.442a39.711,39.711,0,0,1-11.665,4.94c.561,9.392,5.44,17.738,10.765,25.214a76.588,76.588,0,0,0,11.127-5.173C396.288,597.715,392.409,589.528,390.963,580.442Zm.477,14.683a2.738,2.738,0,0,1-.086.833l-.626-.1a2.541,2.541,0,0,0,.056-.356,3.809,3.809,0,0,0,.015-.392,3.165,3.165,0,0,0-.043-.377.475.475,0,0,0-.019-.076c-.5.225-1,.451-1.5.666.021.135.035.264.045.39a1.894,1.894,0,0,1-.027.562,1.078,1.078,0,0,1-.214.458,1.139,1.139,0,0,1-.455.33l-.112.049a1.186,1.186,0,0,1-.479.092,1.157,1.157,0,0,1-.5-.119,1.524,1.524,0,0,1-.467-.365,1.745,1.745,0,0,1-.268-.381c-.272.108-.549.215-.823.318-.083-.254-.123-.377-.208-.626.259-.1.52-.2.78-.3a2.9,2.9,0,0,1-.085-.413,2.362,2.362,0,0,1,.029-.737l.592.088a2.031,2.031,0,0,0-.027.6,1.9,1.9,0,0,0,.046.244c.493-.2.986-.4,1.472-.6a3.336,3.336,0,0,1-.046-.541,1.747,1.747,0,0,1,.087-.556.985.985,0,0,1,.242-.383,1.329,1.329,0,0,1,.387-.247l.112-.049a1.2,1.2,0,0,1,1.109.059,1.546,1.546,0,0,1,.448.4,2.447,2.447,0,0,1,.147.216c.32-.149.644-.3.966-.453.085.241.127.366.208.618-.3.142-.6.284-.9.421A2.5,2.5,0,0,1,391.439,595.125Z" transform="translate(-379.298 -580.442)"/><g transform="translate(1.748 2.368)"><path class="b" d="M388.312,595.384a.66.66,0,0,1-.1.275.553.553,0,0,1-.236.18l-.1.042a.579.579,0,0,1-.551-.059.979.979,0,0,1-.334-.328c.442-.175.881-.353,1.316-.54a.234.234,0,0,1,.005.052A1.469,1.469,0,0,1,388.312,595.384Z" transform="translate(-380.714 -582.184)"/><path class="b" d="M389.761,593.235a.906.906,0,0,1,.3.285c-.448.2-.9.4-1.342.591-.005-.035-.006-.069-.008-.1a1.353,1.353,0,0,1,.029-.368.531.531,0,0,1,.125-.251.668.668,0,0,1,.238-.159l.1-.042A.616.616,0,0,1,389.761,593.235Z" transform="translate(-380.64 -582.262)"/><path class="b" d="M398.214,603.066a61.961,61.961,0,0,1-7.935-19.705.839.839,0,0,1-1.357-.527.6.6,0,0,1-.01-.122,40.156,40.156,0,0,1-6.48,2.68.621.621,0,0,1,.02.119,1.765,1.765,0,0,1-1.4,1.612.771.771,0,0,0-.081.021c1,7.253,4.378,13.766,8.279,19.861a.581.581,0,0,1,.072-.029,2.217,2.217,0,0,1,2.423.994c2.1-.864,4.162-1.784,6.2-2.79A1.443,1.443,0,0,1,398.214,603.066Zm-9.006-7.448a1.894,1.894,0,0,1-.027.562,1.078,1.078,0,0,1-.214.458,1.139,1.139,0,0,1-.455.33l-.112.049a1.186,1.186,0,0,1-.479.092,1.157,1.157,0,0,1-.5-.119,1.524,1.524,0,0,1-.467-.365,1.745,1.745,0,0,1-.268-.381c-.272.108-.549.215-.823.318-.083-.254-.123-.377-.208-.626.259-.1.52-.2.78-.3a2.9,2.9,0,0,1-.085-.413,2.362,2.362,0,0,1,.029-.737l.592.088a2.031,2.031,0,0,0-.027.6,1.9,1.9,0,0,0,.046.244c.493-.2.986-.4,1.472-.6a3.336,3.336,0,0,1-.046-.541,1.747,1.747,0,0,1,.087-.556.985.985,0,0,1,.242-.383,1.329,1.329,0,0,1,.387-.247l.112-.049a1.2,1.2,0,0,1,1.109.059,1.546,1.546,0,0,1,.448.4,2.447,2.447,0,0,1,.147.216c.32-.149.644-.3.966-.453.085.241.127.366.208.618-.3.142-.6.284-.9.421a2.5,2.5,0,0,1,.14.727,2.738,2.738,0,0,1-.086.833l-.626-.1a2.541,2.541,0,0,0,.056-.356,3.809,3.809,0,0,0,.015-.392,3.165,3.165,0,0,0-.043-.377.475.475,0,0,0-.019-.076c-.5.225-1,.451-1.5.666C389.185,595.362,389.2,595.492,389.209,595.618Z" transform="translate(-380.974 -582.712)"/></g><path class="a" d="M388.312,595.384a.66.66,0,0,1-.1.275.553.553,0,0,1-.236.18l-.1.042a.579.579,0,0,1-.551-.059.979.979,0,0,1-.334-.328c.442-.175.881-.353,1.316-.54a.234.234,0,0,1,.005.052A1.469,1.469,0,0,1,388.312,595.384Z" transform="translate(-378.966 -579.816)"/><path class="a" d="M389.761,593.235a.906.906,0,0,1,.3.285c-.448.2-.9.4-1.342.591-.005-.035-.006-.069-.008-.1a1.353,1.353,0,0,1,.029-.368.531.531,0,0,1,.125-.251.668.668,0,0,1,.238-.159l.1-.042A.616.616,0,0,1,389.761,593.235Z" transform="translate(-378.892 -579.894)"/><path class="a" d="M392.266,592.874a4.166,4.166,0,1,0-1.141,6.136A4.432,4.432,0,0,0,392.266,592.874Zm-1.76,2.555a2.541,2.541,0,0,0,.056-.356,3.809,3.809,0,0,0,.015-.392,3.165,3.165,0,0,0-.043-.377.475.475,0,0,0-.019-.076c-.5.225-1,.451-1.5.666.021.135.035.264.045.39a1.894,1.894,0,0,1-.027.562,1.078,1.078,0,0,1-.214.458,1.139,1.139,0,0,1-.455.33l-.112.049a1.186,1.186,0,0,1-.479.092,1.157,1.157,0,0,1-.5-.119,1.524,1.524,0,0,1-.467-.365,1.745,1.745,0,0,1-.268-.381c-.272.108-.549.215-.823.318-.083-.254-.123-.377-.208-.626.259-.1.52-.2.78-.3a2.9,2.9,0,0,1-.085-.413,2.362,2.362,0,0,1,.029-.737l.592.088a2.031,2.031,0,0,0-.027.6,1.9,1.9,0,0,0,.046.244c.493-.2.986-.4,1.472-.6a3.336,3.336,0,0,1-.046-.541,1.747,1.747,0,0,1,.087-.556A.985.985,0,0,1,388.6,593a1.329,1.329,0,0,1,.387-.247l.112-.049a1.2,1.2,0,0,1,1.109.059,1.546,1.546,0,0,1,.448.4,2.447,2.447,0,0,1,.147.216c.32-.149.644-.3.966-.453.085.241.127.366.208.618-.3.142-.6.284-.9.421a2.5,2.5,0,0,1,.14.727,2.738,2.738,0,0,1-.086.833Z" transform="translate(-379.076 -580.01)"/><path class="a" d="M392.361,602.979a.929.929,0,0,0,.321-1.377,1.221,1.221,0,0,0-1.465-.6.907.907,0,0,0-.368,1.355A1.3,1.3,0,0,0,392.361,602.979Z" transform="translate(-378.806 -579.558)"/><path class="a" d="M386,587.689a1.142,1.142,0,0,0,.764-1.183c-.089-.444-.557-.628-1.077-.425a1.176,1.176,0,0,0-.812,1.161A.779.779,0,0,0,386,587.689Z" transform="translate(-379.058 -580.202)"/><path class="b" d="M391.173,594.6a2.5,2.5,0,0,0-.14-.727c.3-.138.6-.28.9-.421-.08-.251-.123-.377-.208-.618-.322.152-.646.3-.966.453a2.446,2.446,0,0,0-.147-.216,1.545,1.545,0,0,0-.448-.4,1.2,1.2,0,0,0-1.109-.059l-.112.049a1.331,1.331,0,0,0-.387.247.986.986,0,0,0-.242.383,1.747,1.747,0,0,0-.087.556,3.335,3.335,0,0,0,.046.541c-.486.205-.979.408-1.472.6a1.9,1.9,0,0,1-.046-.244,2.031,2.031,0,0,1,.027-.6l-.592-.088a2.362,2.362,0,0,0-.029.738,2.906,2.906,0,0,0,.085.413c-.261.1-.522.2-.78.3.085.249.124.372.208.626.274-.1.551-.21.823-.318a1.746,1.746,0,0,0,.268.381,1.523,1.523,0,0,0,.467.365,1.157,1.157,0,0,0,.5.119,1.187,1.187,0,0,0,.479-.092l.112-.049a1.14,1.14,0,0,0,.455-.33,1.078,1.078,0,0,0,.214-.458,1.894,1.894,0,0,0,.027-.562c-.009-.126-.024-.256-.045-.39.5-.215,1-.44,1.5-.666a.475.475,0,0,1,.019.076,3.164,3.164,0,0,1,.043.377,3.808,3.808,0,0,1-.015.392,2.54,2.54,0,0,1-.056.356l.626.1A2.738,2.738,0,0,0,391.173,594.6Zm-2.8.507a1.469,1.469,0,0,1,0,.378.66.66,0,0,1-.1.275.553.553,0,0,1-.236.18l-.1.042a.579.579,0,0,1-.551-.059.978.978,0,0,1-.334-.328c.442-.175.881-.353,1.316-.54A.234.234,0,0,1,388.378,595.112Zm.487-.973c-.005-.035-.006-.069-.008-.1a1.353,1.353,0,0,1,.029-.368.531.531,0,0,1,.125-.251.669.669,0,0,1,.238-.159l.1-.042a.616.616,0,0,1,.554.044.907.907,0,0,1,.3.285C389.759,593.749,389.31,593.948,388.865,594.138Z" transform="translate(-379.032 -579.921)"/></g><g transform="translate(405.243 548.299)"><path class="c" d="M429.77,560.806c-8.414-4.246-16.172-9.458-22.248-16.749a41.1,41.1,0,0,1-7.733,10.535c5.449,8.027,14.178,12.859,22.851,16.676A78.674,78.674,0,0,0,429.77,560.806Z" transform="translate(-399.789 -544.057)"/><g transform="translate(2.525 2.998)"><path class="d" d="M426.779,562.226c-1.277,1.968-2.616,3.869-4.025,5.749a2.291,2.291,0,0,0-2.675.4l-.046.064c-6.674-3.345-13.108-7.341-17.824-13.243a.829.829,0,0,0,.063-.059,1.815,1.815,0,0,0,.387-2.167.942.942,0,0,0-.078-.093,41.442,41.442,0,0,0,4.33-5.8.67.67,0,0,0,.074.1.865.865,0,0,0,1.481-.248A64.076,64.076,0,0,0,425.9,560.217a1.489,1.489,0,0,0,.76,1.963C426.7,562.2,426.74,562.212,426.779,562.226Z" transform="translate(-402.21 -546.931)"/></g><path class="c" d="M415.244,554.23a4.3,4.3,0,1,0,2.227,6.043A4.574,4.574,0,0,0,415.244,554.23Z" transform="translate(-399.375 -543.631)"/><path class="c" d="M420.747,563.072a.961.961,0,0,0-.309-1.323,1.1,1.1,0,0,0-.135-.069,1.26,1.26,0,0,0-1.612.243.936.936,0,0,0,.222,1.3.911.911,0,0,0,.165.093A1.338,1.338,0,0,0,420.747,563.072Z" transform="translate(-398.981 -543.305)"/><path class="c" d="M407.767,553.237a.962.962,0,0,0,.094-1.358.974.974,0,0,0-.1-.1,1.264,1.264,0,0,0-1.615-.243.938.938,0,0,0-.041,1.449A1.339,1.339,0,0,0,407.767,553.237Z" transform="translate(-399.53 -543.742)"/><g transform="translate(11.171 11.721)"><path class="e" d="M413.693,558.328l.413-.637-1.729-2.4-.413.637-.32.494-.413.637-.32.494-.413.637,1.729,2.4.413-.637-1.216-1.686.32-.494,1.216,1.686.413-.637-1.216-1.686.32-.494Z" transform="translate(-410.498 -555.293)"/><g transform="translate(1.728 0)"><path class="e" d="M412.858,559.313l2.8.461.413-.637-2.8-.461Z" transform="translate(-412.124 -555.148)"/><path class="e" d="M412.155,560.4l2.8.461.413-.637-2.8-.461Z" transform="translate(-412.155 -555.101)"/><path class="e" d="M416.826,558.151l-1.832-2.237-2.694-.621,1.714,2.376h0l.016.02-.03.046-.383.591,2.8.461.358-.551h0Z" transform="translate(-412.148 -555.294)"/></g></g></g><g transform="translate(422.717 458.078)"><line class="t" x2="9.621" transform="translate(0 4.812)"/><line class="t" y2="9.621" transform="translate(4.811)"/></g><g transform="translate(291.835 517.494)"><line class="t" x2="9.621" transform="translate(0 4.812)"/><line class="t" y2="9.621" transform="translate(4.811)"/></g></g></svg>