<svg xmlns="http://www.w3.org/2000/svg" width="275.279" height="188.845" viewBox="0 0 275.279 188.845"><defs><style>.a{fill:#d64936;}.b{fill:#b6d3fc;}.c{fill:#a82e2e;}.d{fill:#e9faff;}.e{fill:#7492d8;}.f{fill:#2964aa;}.ae,.af,.ag,.g,.l,.q,.v,.w,.x,.y,.z{fill:none;}.g{stroke:#395992;}.ag,.g,.q,.v,.y{stroke-miterlimit:10;}.h{fill:#1170bb;}.i{fill:#dcaaaa;}.j{fill:#7e7a64;opacity:0.4;isolation:isolate;}.k{fill:#4364a5;}.l,.w{stroke:#564937;}.ae,.af,.ag,.l,.w,.x,.z{stroke-linecap:round;}.ae,.af,.l,.w,.x,.z{stroke-linejoin:round;}.ae,.l,.q{stroke-width:0.75px;}.m{fill:#efffff;}.n{fill:#f6dfce;}.o{fill:#80c2b7;}.p{fill:#e1d2af;}.q,.v{stroke:#3f1a13;}.r{fill:#efcec8;}.s{fill:#e1b5af;}.t{fill:#c56969;}.u{fill:#fff;}.v{stroke-width:0.6px;}.w{stroke-width:0.5px;}.x{stroke:#7ea0de;}.y,.z{stroke:#000;}.aa{fill:#46130a;}.ab{fill:#30c2b8;}.ac{fill:#93e5dd;}.ad{fill:#ffcb65;}.ae,.af{stroke:#1d5996;}.af,.ag{stroke-width:2px;}.ag{stroke:#cb4646;}</style></defs><g transform="translate(-33.393 -233.283)"><g transform="translate(33.393 233.449)"><path class="a" d="M518.988,335.061a2.02,2.02,0,0,1-1.292-3.574l18.953-18.166a2.016,2.016,0,0,1,2.233-.232l13.328,7.049,23.347-19.149a2.019,2.019,0,0,1,2.562,3.122l-24.385,20a2.015,2.015,0,0,1-2.223.219l-13.321-7.046L520.279,334.6A2.034,2.034,0,0,1,518.988,335.061Z" transform="translate(-323.9 -202.859)"/><rect class="b" width="10.589" height="32.966" transform="translate(239.483 118.488)"/><rect class="b" width="10.595" height="27.033" transform="translate(211.106 124.42)"/><rect class="b" width="10.598" height="21.698" transform="translate(225.165 129.756)"/><rect class="b" width="10.586" height="11.597" transform="translate(197.282 139.857)"/><path class="a" d="M642.094,309.459a2.017,2.017,0,0,1-1.915-2.657l1.58-4.751-5,1.2a2.017,2.017,0,1,1-.94-3.922l8.54-2.051a2.018,2.018,0,0,1,2.385,2.6l-2.732,8.2A2.009,2.009,0,0,1,642.094,309.459Z" transform="translate(-391.032 -200.966)"/><path class="c" d="M600.353,346.774a2.515,2.515,0,1,1-2.513-2.514A2.514,2.514,0,0,1,600.353,346.774Z" transform="translate(-368.745 -227.887)"/><path class="c" d="M565.71,332.818a2.516,2.516,0,1,1-2.522-2.521A2.522,2.522,0,0,1,565.71,332.818Z" transform="translate(-348.916 -219.895)"/><path class="d" d="M279.289,348.912c-2.8,0-5.344-2.845-6-2.913-3.812-.363-6.879,1.6-9.884,4.156.578-.5-3.031-3.666-3.626-3.917-1.937-.81-5.808-.643-7.758.028-1.022-14.7-28.783-12.529-31.2,1.256a22.989,22.989,0,0,0-6.437,3.191c-2.888-.8-5.485,1.015-7.331,4.182,1.182-2.029-3.576-4.934-4.735-5.167a7.43,7.43,0,0,0-6.635,2.458c-1.2,1.313-1.087,4.139-2.364,5.21-1.667,1.4-3.088-.376-5.022.249-1.561.5-2.55,2.556-3.953,3.423-2.455,1.523-8.893,1.254-8.893,1.254l116.96.148S286.718,348.912,279.289,348.912Z" transform="translate(-175.456 -265.213)"/><path class="d" d="M279.289,348.912c-2.8,0-5.344-2.845-6-2.913-3.812-.363-6.879,1.6-9.884,4.156.578-.5-3.031-3.666-3.626-3.917-1.937-.81-5.808-.643-7.758.028-1.022-14.7-28.783-12.529-31.2,1.256a22.989,22.989,0,0,0-6.437,3.191c-2.888-.8-5.485,1.015-7.331,4.182,1.182-2.029-3.576-4.934-4.735-5.167a7.43,7.43,0,0,0-6.635,2.458c-1.2,1.313-1.087,4.139-2.364,5.21-1.667,1.4-3.088-.376-5.022.249-1.561.5-2.55,2.556-3.953,3.423-2.455,1.523-8.893,1.254-8.893,1.254l116.96.148S286.718,348.912,279.289,348.912Z" transform="translate(-17.137 -317.871)"/><g transform="translate(64.033 0)"><g transform="translate(0 56.681)"><g transform="translate(0 15.927)"><g transform="translate(0 82.139)"><path class="e" d="M373.239,462.014c.981-.859,6.268-7.97,6.268-7.97l7.834,7.061s-7.024,13.416-7.078,13.728C380.262,474.833,372.866,477.656,373.239,462.014Z" transform="translate(-370.692 -454.044)"/><path class="b" d="M370.634,461.509c-.011,1.522,2.36,8.736,2.832,10.3a48.5,48.5,0,0,0,3.264,8.489c1.2,2.3,3.239,5.308,4.783,1.727a25.375,25.375,0,0,0,1.61-7.458,18.171,18.171,0,0,1,.672-3.7c.3-.9,1.209-1.939,1.217-2.862.038-3.344-5.021-1.21-6.714-1.826-1.327-.482-3.275-7.49-3.231-7.517C373.315,459.624,370.645,460.011,370.634,461.509Z" transform="translate(-370.634 -454.147)"/></g><path class="f" d="M396.868,370.55l.659,46.4-22.76,35.778,13.183,11.583c1.966-2.686,25.74-33.1,30.655-42.71,3.642-7.1,2.772-16.574,2.776-24.3,0-9.094-.237-18.172-.362-27.267" transform="translate(-370.726 -370.038)"/><path class="g" d="M380.82,457.726l23.6-35.118s.929-18.551.571-23.262" transform="translate(-370.86 -370.69)"/></g><g transform="translate(23.717 108.628)"><path class="e" d="M395.037,478.074c-.217-1.469-.129-10.1-.129-10.1l11.564-3.125s4.855,14.188,5.12,14.427C411.592,479.273,407.805,482.513,395.037,478.074Z" transform="translate(-394.89 -464.846)"/></g><path class="h" d="M385.483,359.835c-.524.366-.842,19.3,3.757,46.873,3.625,21.711,4.141,61.171,4.141,61.171l15.014-.215s2.378-21.247,4.1-44.472c1.382-18.649-.488-39.887-1.953-49.756C407.308,351.627,400.482,349.279,385.483,359.835Z" transform="translate(-370.958 -353.749)"/><path class="g" d="M391.626,366.9c-.248-.335-.5.849-.161.984-.845,1.126-.9.837-.9,2.366s1.915,2.218,1.987,3.153c.285,3.669-2.65,4.76-2.778,8.282,2.828.463,2.4,2.763,1.157,4.813l1.072,2.706,4.984,27.447-.414,49.849" transform="translate(-371.06 -354.04)"/><line class="g" x2="3.727" y2="4.761" transform="translate(19.277 56.877)"/><path class="b" d="M395.624,481.207c1.518.536,9.549.644,11.28.7a51.576,51.576,0,0,0,9.625-.353c2.709-.416,6.424-1.42,3.371-4.2a27.051,27.051,0,0,0-6.917-4.17,18.842,18.842,0,0,1-3.469-1.939c-.794-.6-1.527-1.875-2.445-2.2-3.335-1.185-2.937,4.614-4.141,6.1-.938,1.161-8.618.707-8.63.653C394.659,477.879,394.133,480.682,395.624,481.207Z" transform="translate(-371.16 -356.308)"/></g><g transform="translate(1.681)"><g transform="translate(10.238 26.861)"><path class="b" d="M404.334,323.415c-16.13,1.85-20.256,6.732-21.416,19.931-.355,4.021.425,11.266.28,15.3-.154,4.211-.374,25.194-.374,25.194s14.319-4.293,17.969-4.761c6.927-.889,12.87-3.285,19.809-4.167,5.626-.713,1.342-8.225,2.238-12.184,1.278-5.716,5.125-9.624,8.824-16.1.591-1.03-7.926-14.772-9.046-16.076A20.518,20.518,0,0,0,404.334,323.415Z" transform="translate(-382.824 -323.251)"/></g><g transform="translate(20.981)"><path class="i" d="M410.052,323.607c.317,4.863-10.239,5.168-10.536.693,0-.029-.429-6.626-.429-6.626a4.966,4.966,0,0,1,4.624-5.282l.624-.04a4.964,4.964,0,0,1,5.281,4.625v0Z" transform="translate(-393.928 -296.148)"/><path class="j" d="M399.178,318.166s6.772,1.545,8.751-.817l-8.132,7.922Z" transform="translate(-393.931 -296.259)"/><path class="i" d="M410.633,313.579c.242,3.669-2.084,5.769-5.757,6.011l-.838.054c-3.673.243-6.25-1.532-6.49-5.2l-1.108-8.858a6.651,6.651,0,0,1,6.2-7.074h.009l.837-.059a6.658,6.658,0,0,1,7.082,6.2v0Z" transform="translate(-393.87 -295.838)"/><path class="k" d="M401.2,297.661a8,8,0,0,0-7.284,6.155,6.942,6.942,0,0,0,1.5,5.628c.482.454,1.416.157,1.841.859.112.18.459,1.705.061,1.679a3.732,3.732,0,0,0,.708,0,5.835,5.835,0,0,1,.784-1.987c.647-.611,1.335-.459,2.189-.709a11.557,11.557,0,0,0,4.646-3.167c.7-.709,2.18-3.2,3.3-3.134.746.043,1.825,5.088,1.38,5.96,1.559-3.036,7.043-10.2,1.606-12.782-2.028-.965-7.08-.038-8.273,1.971A6.283,6.283,0,0,0,401.2,297.661Z" transform="translate(-393.811 -295.779)"/><g transform="translate(0.722 13.386)"><path class="i" d="M397.973,310.709s-1.261-2.071-2.8-.858-.224,4.061,3.741,4.263" transform="translate(-394.55 -309.47)"/><line class="l" x2="0.998" y2="0.811" transform="translate(1.638 1.631)"/></g></g><g transform="translate(66.008 15.715)"><rect class="m" width="47.827" height="39.684" transform="translate(0 59.852) rotate(-74.755)"/><path class="n" d="M489.3,339.138l15.314,4.168L492.6,386.447l-15.07-4.107Z" transform="translate(-440.698 -312.458)"/><path class="o" d="M449.979,328.426l12.086-10.977,37.745,10.283,4.959,15.619Z" transform="translate(-440.086 -311.976)"/><g transform="translate(15.155 25.895)"><rect class="n" width="9.734" height="5.214" transform="translate(14.003 13.202) rotate(-74.755)"/><rect class="n" width="9.73" height="5.206" transform="translate(0 9.388) rotate(-74.779)"/></g><g transform="translate(10.952 41.304)"><rect class="n" width="9.734" height="5.214" transform="translate(14.005 13.209) rotate(-74.741)"/><rect class="n" width="9.738" height="5.212" transform="translate(0 9.392) rotate(-74.7)"/></g><path class="p" d="M466.941,321.351l2.648.724,3.021-.622,2.014-7.412-5.3-1.44Z" transform="translate(-440.463 -311.868)"/><path class="n" d="M499.97,328.655,489.8,339.32l-.149.543,14.977,3.823Z" transform="translate(-440.968 -312.225)"/><rect class="m" width="9.068" height="5.492" transform="translate(23.784 8.75) rotate(-74.771)"/><g transform="translate(15.042 26.203)"><path class="q" d="M474.626,353.311l-5.036-1.371,2.556-9.387" transform="translate(-455.564 -338.737)"/><path class="q" d="M460.272,349.4l-5.027-1.37,2.555-9.381" transform="translate(-455.245 -338.65)"/></g><g transform="translate(10.947 41.235)"><path class="q" d="M470.438,368.687l-5.037-1.37,2.556-9.387" transform="translate(-451.376 -354.111)"/><path class="q" d="M456.084,364.778l-5.027-1.37,2.556-9.384" transform="translate(-451.057 -354.024)"/></g><line class="q" x1="10.642" y2="39.079" transform="translate(36.832 30.802)"/></g><g transform="translate(38.2 14.64)"><rect class="r" width="34.564" height="50.326" transform="translate(9.373 14.64)"/><rect class="s" width="9.544" height="50.326" transform="translate(1.139 14.64)"/><path class="t" d="M456.976,329.828l-6.119-13.387H416.222l-4.8,13.387Z" transform="translate(-411.421 -310.879)"/><g transform="translate(19.634 23.707)"><rect class="u" width="4.54" height="8.472"/><rect class="u" width="4.54" height="8.472" transform="translate(12.645)"/></g><g transform="translate(19.634 37.624)"><rect class="u" width="4.54" height="8.476"/><rect class="u" width="4.54" height="8.476" transform="translate(12.645)"/></g><g transform="translate(19.634 51.543)"><rect class="u" width="4.54" height="8.476"/><rect class="u" width="4.54" height="8.476" transform="translate(12.645)"/></g><path class="s" d="M445.283,318.652h-2.4l-2.394-1.208v-6.692h4.791Z" transform="translate(-412.067 -310.752)"/><path class="s" d="M417.12,316.766l4.722,13.093v1.384l-9.219.159-.022-1.547Z" transform="translate(-411.447 -310.886)"/><rect class="r" width="4.783" height="7.9" transform="translate(30.86 0)"/><g transform="translate(19.638 23.71)"><path class="v" d="M431.505,343.469h4.54V335" transform="translate(-431.505 -335.001)"/><path class="v" d="M444.457,343.469H449V335" transform="translate(-431.793 -335.001)"/></g><g transform="translate(19.638 37.912)"><path class="v" d="M431.505,358h4.54v-8.471" transform="translate(-431.505 -349.526)"/><path class="v" d="M444.457,358H449v-8.471" transform="translate(-431.793 -349.526)"/></g><g transform="translate(19.638 51.487)"><path class="v" d="M431.505,371.878h4.54v-8.469" transform="translate(-431.505 -363.409)"/><path class="v" d="M444.457,371.878H449v-8.469" transform="translate(-431.793 -363.409)"/></g><line class="v" y1="43.954" transform="translate(10.683 21.013)"/></g><g transform="translate(19.458 59.078)"><g transform="translate(28.431 10.706)"><path class="i" d="M425.522,367.256c-.265-.448,5.718.65,6.528.98,1.544.634,3.058,2.2,4.376,3.227,1.627,1.264,2,1.455,4.081,1.337,1.279-.077,5.631-1.679,5.159.783-.8,4.133-5.893,6.757-8.282,6.449a84.225,84.225,0,0,1-15.923-4.141C420.465,375.445,425.522,367.256,425.522,367.256Z" transform="translate(-421.33 -367.15)"/><path class="w" d="M445.351,373.191s-3.531,1.679-5.462,1.56a5.023,5.023,0,0,1-3.051-1.274" transform="translate(-421.675 -367.284)"/><path class="w" d="M445.225,375.163s-2.775,1.78-4.572,1.708a10.371,10.371,0,0,1-3.83-1.187" transform="translate(-421.675 -367.328)"/><path class="w" d="M444.515,376.551s-2.774,1.778-4.566,1.71a10.306,10.306,0,0,1-3.83-1.185" transform="translate(-421.659 -367.359)"/><path class="i" d="M431.152,368.2c3.544.356,7.513-2.111,7.883.544.193,1.455-2.788,1.343-4,2.392" transform="translate(-421.549 -367.158)"/></g><path class="b" d="M392.253,368.765a13.58,13.58,0,0,0,2.732,1.243c2.366.793,28.136,8.554,28.388,7.32l3.951-11.917c.159-.784-23.651-9.211-23.651-9.211" transform="translate(-392.253 -356.2)"/></g><g transform="translate(100.765 21.959)"><path class="i" d="M489.008,324.078s-.871,3.539-2.767,4.27-3.507-.271-.626-5.062C486.919,321.112,489.54,322.053,489.008,324.078Z" transform="translate(-475.6 -318.322)"/><path class="i" d="M486.158,322.811s-.865,3.541-2.765,4.271-3.511-.273-.626-5.071C484.078,319.844,486.692,320.793,486.158,322.811Z" transform="translate(-475.537 -318.294)"/><path class="i" d="M483.31,321.535s-.863,3.545-2.762,4.273-3.51-.263-.625-5.058C481.232,318.576,483.852,319.521,483.31,321.535Z" transform="translate(-475.474 -318.266)"/><path class="i" d="M480.464,320.276s-.867,3.536-2.763,4.263-3.509-.262-.627-5.057C478.386,317.3,481.006,318.254,480.464,320.276Z" transform="translate(-475.41 -318.237)"/><path class="l" d="M483.987,326.945s-.084-1.557,2.368-4.605" transform="translate(-475.599 -318.329)"/><path class="l" d="M481.163,325.625s-.078-1.556,2.369-4.6" transform="translate(-475.536 -318.299)"/><path class="l" d="M478.4,324.461s-.083-1.566,2.366-4.6" transform="translate(-475.475 -318.273)"/><path class="l" d="M475.472,323.366s-.6-.819,1.855-3.853" transform="translate(-475.408 -318.266)"/><path class="l" d="M488.321,326.4a2.17,2.17,0,0,0,.466-1.658" transform="translate(-475.695 -318.382)"/></g><path class="x" d="M386.136,345.5s0-1.343,1.344,11.162c.849,7.935,7.518,13.526,7.518,13.526l5.872,1.648" transform="translate(-372.659 -296.884)"/><path class="x" d="M427.163,364.165l-20.981-8.481-1.79-14.286" transform="translate(-373.065 -296.793)"/><path class="y" d="M375.268,338.955c.813-6.245,4.576-11.719,9.242-15.853" transform="translate(-372.418 -296.387)"/><path class="y" d="M372.353,333.467a17.569,17.569,0,0,1,6.155-10.568" transform="translate(-372.353 -296.382)"/></g><g transform="translate(116.5 0.441)"><line class="z" y1="3.003" x2="14.126" transform="translate(14.561 26.373)"/><line class="z" y1="9.217" x2="12.596" transform="translate(10.663 13.696)"/><line class="z" y1="13.55" x2="3.413" transform="translate(0 0)"/><line class="z" y1="5.94" x2="3.69" transform="translate(5.555 10.892)"/></g><g transform="translate(32.019 12.766)"><g transform="translate(1.733 0)"><g transform="translate(4.278 2.128)"><path class="aa" d="M410.175,312.959a.581.581,0,0,0,.47-.253,1.543,1.543,0,0,0,.2-1.21l-.052-.142a.441.441,0,0,0-.151-.2.626.626,0,0,0-.917.14,1.529,1.529,0,0,0-.138,1.186A.627.627,0,0,0,410.175,312.959Z" transform="translate(-409.528 -311.012)"/></g><g transform="translate(0 2.252)"><path class="aa" d="M405.785,313.084a.6.6,0,0,0,.471-.246,1.57,1.57,0,0,0,.242-1.185l-.054-.159a.453.453,0,0,0-.136-.192.656.656,0,0,0-.423-.162.614.614,0,0,0-.507.275,1.549,1.549,0,0,0-.178,1.165C405.353,313.034,405.66,313.084,405.785,313.084Z" transform="translate(-405.153 -311.139)"/></g><g transform="translate(1.648)"><path class="aa" d="M407.38,314.8l-.135,0a.284.284,0,0,1,0-.568,1.219,1.219,0,0,0,1.006-.33c-.338-1.093-.8-2.771-.026-3.9a2.768,2.768,0,0,1,2.243-1.041.275.275,0,0,1,.3.266.287.287,0,0,1-.266.3,2.232,2.232,0,0,0-1.812.8c-.663.962-.131,2.66.153,3.574a.294.294,0,0,1-.074.3A1.762,1.762,0,0,1,407.38,314.8Z" transform="translate(-406.842 -308.838)"/><path class="aa" d="M407.243,314.918l.137,0a1.883,1.883,0,0,0,1.468-.636.417.417,0,0,0,.107-.416c-.283-.9-.8-2.562-.169-3.473a2.123,2.123,0,0,1,1.72-.746.4.4,0,1,0-.064-.8,2.855,2.855,0,0,0-2.317,1.091c-.824,1.2-.3,3-.015,3.927a1.084,1.084,0,0,1-.851.253.4.4,0,1,0-.016.807Zm3.262-5.964v.118a.168.168,0,0,1-.016.333,2.337,2.337,0,0,0-1.9.849c-.694,1.006-.155,2.739.134,3.669a.183.183,0,0,1-.04.184,1.643,1.643,0,0,1-1.306.569h-.045l-.09,0a.164.164,0,1,1,0-.329,1.353,1.353,0,0,0,1.086-.362l.056-.051-.022-.074c-.268-.862-.823-2.66-.041-3.8a2.651,2.651,0,0,1,2.151-.99Z" transform="translate(-406.839 -308.836)"/></g></g><path class="aa" d="M406.863,317.727c.044,0,.089,0,.133,0a2.391,2.391,0,0,0,1.959-1.068.447.447,0,1,0-.767-.459,1.525,1.525,0,0,1-1.233.632,1.75,1.75,0,0,1-1.605-.777.448.448,0,0,0-.724.53A2.743,2.743,0,0,0,406.863,317.727Z" transform="translate(-403.406 -308.992)"/><path class="aa" d="M403.83,310.545a.443.443,0,0,0,.209-.053c.841-.445,1.606-.774,2.388-.24a.448.448,0,0,0,.5-.742,3.025,3.025,0,0,0-3.311.192.448.448,0,0,0,.211.843Z" transform="translate(-403.381 -308.841)"/></g><g transform="translate(104.5 74.252)"><path class="ab" d="M158.817,535.011c-2.885,10.615-17.52,8.932-20,19.849q-4.719-4.665-9.44-9.325c2.884-10.615,17.52-8.929,20-19.847Q154.1,530.35,158.817,535.011Z" transform="translate(-129.375 -525.688)"/><g transform="translate(2.114 3.684)"><path class="ac" d="M161.2,542.945q-2.569-2.541-5.14-5.083a.938.938,0,0,1-1.657.426c-.02-.02-.037-.042-.052-.057-4.216,6.914-13.494,7.076-17.993,13.715.019.016.04.031.057.049a2.466,2.466,0,0,1,.423,2.481c-.018.056-.04.107-.061.155q2.578,2.546,5.155,5.095c.013-.058.03-.116.047-.168a.949.949,0,0,1,1.675-.407c4.315-6.814,13.59-6.975,17.992-13.7A2.545,2.545,0,0,1,161.2,542.945Z" transform="translate(-136.362 -537.862)"/></g><path class="ab" d="M200.777,553.939a1.112,1.112,0,0,1,.079,1.5,1,1,0,0,1-1.431.009,1.029,1.029,0,0,1-.009-1.43A.917.917,0,0,1,200.777,553.939Z" transform="translate(-178.023 -545.203)"/><path class="ab" d="M149.788,587.227a1.08,1.08,0,0,1,.04,1.456.873.873,0,0,1-1.33.1,1.174,1.174,0,0,1-.114-1.525A.955.955,0,0,1,149.788,587.227Z" transform="translate(-142.471 -568.402)"/><path class="ab" d="M169.69,562.01a3.382,3.382,0,0,1-1.118,5.664c-2.447,1.116-5.821.958-7.835-.983a3.374,3.374,0,0,1,1.132-5.65C164.312,559.927,167.679,560.068,169.69,562.01Z" transform="translate(-150.479 -549.855)"/><g transform="translate(11.877 11.636)"><path class="ac" d="M174.6,567.68a.964.964,0,0,0-.006-.548,1.161,1.161,0,0,0-.36-.523l-.1-.091a1.623,1.623,0,0,0-.457-.291,1.509,1.509,0,0,0-.566-.115,2.784,2.784,0,0,0-.717.088,5.539,5.539,0,0,0-.79.26c-.393-.418-.784-.835-1.2-1.256a2.41,2.41,0,0,1,.3-.13,3.162,3.162,0,0,1,.747-.157l-.127-.593a3.864,3.864,0,0,0-.917.2,3.281,3.281,0,0,0-.475.206c-.2-.194-.4-.393-.611-.59-.269.145-.339.1-.705.306.239.227.472.454.7.681a2.039,2.039,0,0,0-.4.4,1.338,1.338,0,0,0-.26.557.912.912,0,0,0,.045.511,1.14,1.14,0,0,0,.306.424l.1.091a1.439,1.439,0,0,0,.584.336,1.829,1.829,0,0,0,.645.064,3.125,3.125,0,0,0,.7-.145c.106-.033.215-.073.324-.112.412.433.823.865,1.244,1.3-.076.024-.154.048-.233.07-.154.042-.318.079-.481.109s-.321.045-.463.055l.13.623a4.284,4.284,0,0,0,1.053-.172,2.965,2.965,0,0,0,.5-.182c.242.239.487.475.741.714.3-.227.357-.191.605-.36-.251-.233-.493-.469-.726-.7a3.007,3.007,0,0,0,.542-.472A1.466,1.466,0,0,0,174.6,567.68Zm-4.161-.841a1.054,1.054,0,0,1-.381-.012.73.73,0,0,1-.312-.167l-.091-.082a.5.5,0,0,1-.145-.545.968.968,0,0,1,.287-.43c.372.375.732.753,1.089,1.129A2.2,2.2,0,0,1,170.443,566.839Zm3.335.772a1.127,1.127,0,0,1-.508.611c-.409-.418-.8-.835-1.192-1.253.124-.048.236-.085.339-.115a2.285,2.285,0,0,1,.463-.085.84.84,0,0,1,.357.045.876.876,0,0,1,.287.176l.091.082A.514.514,0,0,1,173.777,567.611Z" transform="translate(-168.624 -564.14)"/></g></g><g transform="translate(66.612 101.414)"><g transform="translate(0 0)"><path class="ab" d="M458.108,708.932a.646.646,0,0,1,.022.283.532.532,0,0,1-.132.254l-.07.077a.564.564,0,0,1-.508.173.947.947,0,0,1-.426-.151c.316-.335.629-.669.934-1.011a.276.276,0,0,1,.026.044A1.469,1.469,0,0,1,458.108,708.932Z" transform="translate(-445.581 -694.342)"/><path class="ab" d="M460.24,701.678a.866.866,0,0,1,.382.125c-.309.36-.621.717-.934,1.066-.019-.029-.033-.059-.048-.085a1.33,1.33,0,0,1-.125-.335.521.521,0,0,1,.007-.272.644.644,0,0,1,.144-.235l.07-.077A.6.6,0,0,1,460.24,701.678Z" transform="translate(-447.286 -689.662)"/><path class="ab" d="M429.51,664.1a38.4,38.4,0,0,1-8.207,9.089c4.324,8,12.005,13.325,19.723,17.7a74.014,74.014,0,0,0,7.641-9.074C441.224,677.07,434.485,671.477,429.51,664.1Zm6.409,12.674a2.592,2.592,0,0,1,.265.765l-.588.169a2.349,2.349,0,0,0-.1-.335,3.7,3.7,0,0,0-.147-.349,2.955,2.955,0,0,0-.191-.312.36.36,0,0,0-.048-.059c-.345.4-.691.8-1.044,1.195.074.11.14.217.2.324a1.846,1.846,0,0,1,.206.5,1.047,1.047,0,0,1,0,.489,1.106,1.106,0,0,1-.265.474l-.077.088a1.142,1.142,0,0,1-.382.276,1.116,1.116,0,0,1-.485.1,1.475,1.475,0,0,1-.559-.129,1.686,1.686,0,0,1-.39-.224c-.195.206-.393.412-.592.614-.177-.187-.261-.279-.437-.463.187-.191.375-.386.563-.581a2.809,2.809,0,0,1-.243-.327,2.292,2.292,0,0,1-.276-.658l.555-.165a1.961,1.961,0,0,0,.221.537,1.7,1.7,0,0,0,.14.195c.353-.371.7-.75,1.044-1.129a3.186,3.186,0,0,1-.261-.456,1.675,1.675,0,0,1-.151-.522.948.948,0,0,1,.055-.434,1.294,1.294,0,0,1,.239-.375l.077-.088a1.2,1.2,0,0,1,.471-.331,1.217,1.217,0,0,1,.526-.07,1.485,1.485,0,0,1,.555.169,2.244,2.244,0,0,1,.217.129c.221-.261.441-.526.662-.791.173.177.261.269.434.456-.2.246-.408.493-.614.735A2.421,2.421,0,0,1,435.919,676.779Z" transform="translate(-421.303 -664.105)"/><g transform="translate(2.291 2.883)"><path class="ac" d="M458.108,708.932a.646.646,0,0,1,.022.283.532.532,0,0,1-.132.254l-.07.077a.564.564,0,0,1-.508.173.947.947,0,0,1-.426-.151c.316-.335.629-.669.934-1.011a.276.276,0,0,1,.026.044A1.469,1.469,0,0,1,458.108,708.932Z" transform="translate(-447.872 -697.225)"/><path class="ac" d="M460.24,701.678a.866.866,0,0,1,.382.125c-.309.36-.621.717-.934,1.066-.019-.029-.033-.059-.048-.085a1.33,1.33,0,0,1-.125-.335.521.521,0,0,1,.007-.272.644.644,0,0,1,.144-.235l.07-.077A.6.6,0,0,1,460.24,701.678Z" transform="translate(-449.577 -692.545)"/><path class="ac" d="M450.072,687.162a59.907,59.907,0,0,1-14.995-14.031.812.812,0,0,1-1.4.092.589.589,0,0,1-.059-.1,38.8,38.8,0,0,1-4.585,4.993.634.634,0,0,1,.066.1,1.706,1.706,0,0,1-.566,1.982.78.78,0,0,0-.062.051c3.835,5.949,9.453,10.277,15.358,14.027.019-.018.033-.04.051-.055a2.145,2.145,0,0,1,2.53-.118c1.489-1.614,2.92-3.261,4.295-4.975A1.4,1.4,0,0,1,450.072,687.162Zm-10.931-2.853a1.85,1.85,0,0,1,.206.5,1.05,1.05,0,0,1,0,.489,1.107,1.107,0,0,1-.265.474l-.077.088a1.142,1.142,0,0,1-.382.276,1.115,1.115,0,0,1-.485.1,1.48,1.48,0,0,1-.559-.129,1.69,1.69,0,0,1-.39-.224c-.195.206-.393.412-.592.614-.177-.187-.261-.279-.437-.463.187-.191.375-.386.562-.581a2.785,2.785,0,0,1-.243-.327,2.288,2.288,0,0,1-.276-.658l.555-.165a1.958,1.958,0,0,0,.221.537,1.674,1.674,0,0,0,.14.195c.353-.371.7-.75,1.044-1.129a3.185,3.185,0,0,1-.261-.456,1.673,1.673,0,0,1-.151-.522.949.949,0,0,1,.055-.434,1.291,1.291,0,0,1,.239-.375l.077-.088a1.2,1.2,0,0,1,.471-.331,1.22,1.22,0,0,1,.526-.07,1.483,1.483,0,0,1,.555.169,2.279,2.279,0,0,1,.217.129c.221-.261.441-.526.662-.79.173.176.261.269.434.456-.2.246-.408.493-.614.735a2.424,2.424,0,0,1,.419.581,2.593,2.593,0,0,1,.265.765l-.588.169a2.339,2.339,0,0,0-.1-.335,3.729,3.729,0,0,0-.147-.349,2.945,2.945,0,0,0-.191-.312.352.352,0,0,0-.048-.059c-.345.4-.691.8-1.044,1.2C439.016,684.1,439.082,684.2,439.141,684.309Z" transform="translate(-428.467 -673.12)"/></g><path class="ab" d="M458.108,708.932a.646.646,0,0,1,.022.283.532.532,0,0,1-.132.254l-.07.077a.564.564,0,0,1-.508.173.947.947,0,0,1-.426-.151c.316-.335.629-.669.934-1.011a.276.276,0,0,1,.026.044A1.469,1.469,0,0,1,458.108,708.932Z" transform="translate(-445.581 -694.342)"/><path class="ab" d="M460.24,701.678a.866.866,0,0,1,.382.125c-.309.36-.621.717-.934,1.066-.019-.029-.033-.059-.048-.085a1.33,1.33,0,0,1-.125-.335.521.521,0,0,1,.007-.272.644.644,0,0,1,.144-.235l.07-.077A.6.6,0,0,1,460.24,701.678Z" transform="translate(-447.286 -689.662)"/><path class="ab" d="M453.512,695.588a4.027,4.027,0,1,0,1.5,5.843A4.285,4.285,0,0,0,453.512,695.588Zm-.5,2.956a2.35,2.35,0,0,0-.1-.335,3.742,3.742,0,0,0-.147-.349,2.973,2.973,0,0,0-.191-.313.354.354,0,0,0-.048-.059c-.345.4-.691.8-1.044,1.2.074.11.14.217.2.324a1.847,1.847,0,0,1,.206.5,1.049,1.049,0,0,1,0,.489,1.1,1.1,0,0,1-.265.474l-.077.088a1.141,1.141,0,0,1-.382.276,1.117,1.117,0,0,1-.485.1,1.476,1.476,0,0,1-.559-.129,1.687,1.687,0,0,1-.39-.224c-.195.206-.393.412-.592.614-.177-.187-.261-.279-.438-.463.187-.191.375-.386.563-.581a2.805,2.805,0,0,1-.243-.327,2.291,2.291,0,0,1-.276-.658L449.3,699a1.959,1.959,0,0,0,.221.537,1.708,1.708,0,0,0,.14.195c.353-.371.7-.75,1.044-1.129a3.182,3.182,0,0,1-.261-.456,1.674,1.674,0,0,1-.151-.522.948.948,0,0,1,.055-.434,1.293,1.293,0,0,1,.239-.375l.077-.088a1.2,1.2,0,0,1,.471-.331,1.217,1.217,0,0,1,.526-.07,1.483,1.483,0,0,1,.555.169,2.239,2.239,0,0,1,.217.129c.221-.261.441-.526.662-.791.173.176.261.269.434.456-.2.246-.408.493-.614.735a2.425,2.425,0,0,1,.419.581,2.592,2.592,0,0,1,.265.765Z" transform="translate(-438.72 -684.935)"/><path class="ab" d="M477.721,722.518a.9.9,0,0,0-.28-1.339,1.182,1.182,0,0,0-1.527.075.877.877,0,0,0,.231,1.338A1.253,1.253,0,0,0,477.721,722.518Z" transform="translate(-458.301 -702.763)"/><path class="ab" d="M440.8,687.261a1.1,1.1,0,0,0,.187-1.348c-.259-.353-.745-.323-1.117.067a1.136,1.136,0,0,0-.238,1.348A.753.753,0,0,0,440.8,687.261Z" transform="translate(-433.681 -678.772)"/><path class="ac" d="M457.154,699.969a2.423,2.423,0,0,0-.419-.581c.206-.243.412-.489.614-.736-.173-.187-.261-.279-.434-.456-.221.265-.441.529-.662.79a2.266,2.266,0,0,0-.217-.129,1.482,1.482,0,0,0-.555-.169,1.216,1.216,0,0,0-.526.07,1.2,1.2,0,0,0-.471.331l-.077.088a1.293,1.293,0,0,0-.239.375.948.948,0,0,0-.055.434,1.672,1.672,0,0,0,.151.522,3.191,3.191,0,0,0,.261.456c-.342.379-.691.758-1.044,1.129a1.7,1.7,0,0,1-.14-.195,1.962,1.962,0,0,1-.221-.537l-.555.165a2.292,2.292,0,0,0,.276.658,2.808,2.808,0,0,0,.243.327c-.187.195-.375.39-.562.581.177.184.261.276.438.463.2-.2.4-.408.592-.614a1.694,1.694,0,0,0,.39.225,1.479,1.479,0,0,0,.559.128,1.117,1.117,0,0,0,.485-.1,1.143,1.143,0,0,0,.382-.276l.077-.088a1.106,1.106,0,0,0,.265-.474,1.05,1.05,0,0,0,0-.489,1.846,1.846,0,0,0-.206-.5c-.059-.107-.125-.213-.2-.324.353-.394.7-.794,1.044-1.2a.359.359,0,0,1,.048.059,2.965,2.965,0,0,1,.191.312,3.773,3.773,0,0,1,.147.349,2.339,2.339,0,0,1,.1.335l.588-.169A2.594,2.594,0,0,0,457.154,699.969Zm-2.243,1.585a1.464,1.464,0,0,1,.154.331.647.647,0,0,1,.022.283.533.533,0,0,1-.132.254l-.07.077a.563.563,0,0,1-.507.173.945.945,0,0,1-.426-.151c.316-.335.629-.669.934-1.011A.252.252,0,0,1,454.911,701.554Zm.029-1.051c-.019-.029-.033-.059-.048-.085a1.329,1.329,0,0,1-.125-.334.522.522,0,0,1,.007-.272.644.644,0,0,1,.144-.235l.07-.077a.6.6,0,0,1,.5-.188.866.866,0,0,1,.382.125C455.565,699.8,455.253,700.153,454.94,700.5Z" transform="translate(-442.538 -687.295)"/></g></g></g><g transform="translate(155.381 126.563)"><g transform="translate(0 0)"><path class="ad" d="M766.979,598.3c-2.26-.075-4.967-.275-5.056-.489.059.147,5.346,10.749,5.346,10.749s-33.994,48.5-.788,50.449c11.546.681,33.686,3.228,39.82-10.37,2.6-5.776.337-13.071-1.611-18.677-1.3-3.753-12.09-21.548-12.09-21.548l5.129-10.606a39.181,39.181,0,0,0-5.087-.147c-1.808.538-3.315,1.663-5.331,1.41-.956-.124-1.618-.847-2.464-1.192-1.465-.6-1.539-.358-3.053.193-1.946.716-4.066,1.281-6.057.393-2.56-1.132-3.185-1.208-5.756-.214a16.729,16.729,0,0,1-3,.049" transform="translate(-751.924 -597.533)"/></g><path class="ae" d="M764.334,606.264c5.039,1.4,17.1,2.275,21.833-.162" transform="translate(-746.843 -594.024)"/><path class="ae" d="M766.08,600.173a51.667,51.667,0,0,0,3.474,6.946" transform="translate(-746.128 -596.452)"/><path class="ae" d="M771.57,606.706v-5.643" transform="translate(-743.88 -596.088)"/><line class="ae" y1="6.947" x2="4.339" transform="translate(32.456 4.404)"/><g transform="translate(15.44 31.058)"><path class="af" d="M763.568,616.822l4.717,14.187,5.2-13.617,4.632,13.617,4.362-14.752" transform="translate(-761.14 -616.257)"/><line class="af" x2="24.612" transform="translate(0 5.595)"/></g></g></g><g transform="translate(84.8 327.481)"><line class="ag" x2="11.526" transform="translate(0 5.765)"/><line class="ag" y2="11.526" transform="translate(5.764)"/></g><g transform="translate(247.672 275.577)"><line class="ag" x2="11.526" transform="translate(0 5.765)"/><line class="ag" y2="11.526" transform="translate(5.764)"/></g></g></svg>