<svg xmlns="http://www.w3.org/2000/svg" width="256" height="185.817" viewBox="0 0 256 185.817"><defs><style>.a,.ac,.af,.e,.g,.l,.m,.n,.q,.s,.t,.w{fill:none;}.a{stroke:#cb4646;}.a,.af,.g,.l,.m,.n,.s,.w{stroke-linecap:round;}.a,.ac,.af,.e,.q,.t{stroke-miterlimit:10;}.a,.af{stroke-width:2px;}.b{fill:#7492d8;}.c{fill:#b6d3fc;}.d{fill:#4364a5;}.e{stroke:#395992;}.f{fill:#416fb6;}.g,.l{stroke:#46130a;}.g,.l,.m,.n,.s,.w{stroke-linejoin:round;}.g{stroke-width:1.5px;}.h,.r{fill:#fff;}.i{fill:#dcaaaa;}.j{fill:#897b63;}.j,.v{opacity:0.4;mix-blend-mode:multiply;isolation:isolate;}.k{fill:#46130a;}.l,.q,.s{stroke-width:0.75px;}.m{stroke:#7ea0de;}.n,.s{stroke:#1c7bba;}.o{fill:#175f99;}.p{fill:#9aaae7;}.q,.t{stroke:#2b2626;}.r{opacity:0.5;}.t,.w{stroke-width:0.5px;}.u{fill:#f4b2b0;}.v{fill:#8f7b63;}.w{stroke:#2e3847;}.x{fill:#5b4733;}.y{fill:#48424c;}.z{fill:#dfebf4;}.aa{fill:#30c2b8;}.ab{fill:#93e5dd;}.ac{stroke:#fff;}.ad{fill:#5087ca;}.ae{fill:#abd5fd;}.af{stroke:#93e5dd;}</style></defs><g transform="translate(-201.931 -736.245)"><g transform="translate(371.752 751.724)"><line class="a" x2="8.45" transform="translate(0 4.226)"/><line class="a" y2="8.45" transform="translate(4.225)"/></g><g transform="translate(444.966 829.043)"><line class="a" x2="8.45" transform="translate(0 4.226)"/><line class="a" y2="8.45" transform="translate(4.225)"/></g><g transform="translate(395.167 802.492)"><g transform="translate(0)"><g transform="translate(0 14.924)"><g transform="translate(31.949 76.968)"><path class="b" d="M460.922,923.22c-.919-.805-5.873-7.468-5.873-7.468l-7.341,6.617s6.581,12.571,6.632,12.864C454.34,935.233,461.271,937.878,460.922,923.22Z" transform="translate(-447.708 -915.752)"/><path class="c" d="M463.5,923.038c.01,1.428-2.212,8.186-2.653,9.656a45.515,45.515,0,0,1-3.059,7.955c-1.127,2.154-3.035,4.974-4.482,1.618a23.806,23.806,0,0,1-1.509-6.989,16.964,16.964,0,0,0-.629-3.468c-.279-.838-1.132-1.817-1.141-2.681-.036-3.133,4.706-1.134,6.293-1.711,1.243-.453,3.068-7.019,3.027-7.045C460.99,921.272,463.492,921.635,463.5,923.038Z" transform="translate(-447.902 -916.139)"/></g><path class="d" d="M435.891,832.226l-.618,43.479L456.6,909.231l-12.354,10.854c-1.843-2.517-24.12-31.012-28.725-40.021-3.412-6.657-2.6-15.531-2.6-22.766,0-8.522.221-17.028.339-25.551" transform="translate(-412.837 -831.746)"/><path class="e" d="M452.471,915.759,430.36,882.852s-.87-17.383-.535-21.8" transform="translate(-414.254 -834.201)"/></g><g transform="translate(9.675 101.789)"><path class="b" d="M438.91,938.95c.2-1.376.121-9.467.121-9.467L428.2,926.554s-4.55,13.294-4.8,13.519C423.4,940.073,426.945,943.109,438.91,938.95Z" transform="translate(-423.397 -926.554)"/></g><path class="f" d="M447.522,821.161c.492.342.79,18.087-3.519,43.922-3.4,20.344-3.88,57.32-3.88,57.32l-14.069-.2s-2.228-19.909-3.84-41.672c-1.3-17.475.457-37.376,1.829-46.623C427.072,813.469,433.469,811.268,447.522,821.161Z" transform="translate(-413.585 -815.457)"/><path class="e" d="M443.241,828.6c.233-.314.466.8.151.922.792,1.055.845.784.838,2.217s-1.794,2.078-1.861,2.955c-.268,3.438,2.483,4.46,2.6,7.76-2.65.433-2.251,2.589-1.083,4.51l-1,2.537-4.67,25.718.387,46.711" transform="translate(-414.963 -816.554)"/><line class="e" x1="3.492" y2="4.461" transform="translate(25.994 53.296)"/></g><path class="c" d="M437.536,942.14c-1.422.5-8.947.6-10.569.659a48.325,48.325,0,0,1-9.018-.331c-2.539-.39-6.02-1.33-3.16-3.932a25.352,25.352,0,0,1,6.482-3.907,17.75,17.75,0,0,0,3.251-1.818c.744-.564,1.43-1.757,2.292-2.061,3.125-1.111,2.751,4.324,3.88,5.715.879,1.087,8.075.662,8.087.612C438.441,939.021,438.934,941.648,437.536,942.14Z" transform="translate(-412.911 -825.104)"/></g><g transform="translate(322.768 740.065)"><g transform="translate(69.106)"><path class="c" d="M443.765,782.5c-4.355-1.163-5.915-2.784-10.176-3.167-14.821-1.338-21.52,7.264-24.194,18.317-1.041,4.31,3.593,27.028,2.712,32.575l36.632-.694c-.161-6.876.12-12.792-.9-20.124-.759-5.414.033-10.585-.986-15.83C446.194,790.175,446.361,784.946,443.765,782.5Z" transform="translate(-409.243 -749.993)"/><g transform="translate(6.016)"><line class="g" x1="1.067" y2="0.992" transform="translate(19.849 9.761)"/><path class="h" d="M436.031,760.932a.7.7,0,1,0,.707-.7A.7.7,0,0,0,436.031,760.932Z" transform="translate(-417.503 -748.404)"/><path class="i" d="M425.921,774.267l-.222,5.658,2.225,1.908a4.418,4.418,0,0,0,5.3.339l4.459-2.927s-1.4-1.447-2.022-6.461Z" transform="translate(-416.637 -749.456)"/><path class="j" d="M425.845,775.249a4.653,4.653,0,0,0,4.255-.4l-4.094,5.339Z" transform="translate(-416.649 -749.629)"/><path class="i" d="M430.141,772.982c-1.788.449-4.429,1.044-5.942.049-3.643-2.405-2.6-9.01-2.552-11.054.039-1.653.192-3.9,1.3-5.252.912-1.1,2.493-1.032,3.779-1.226a13.656,13.656,0,0,1,4.872-.136,11.93,11.93,0,0,1,4.868,2.417,63.713,63.713,0,0,0-1.061,13.8s-4.565,1.214-4.926,1.314Z" transform="translate(-416.283 -747.982)"/><path class="d" d="M437.676,763.192c.859.108.862-5.685.688-6.376-.413-1.622-1.023-4.045-2.37-5.026-2.572-1.874-7.18-5.735-9.744-3.312-2.475-1.945-7.693-1.49-9.788,1.784-2.364,3.7,2.38,7.1,3.208,8.269,1.212,1.715,1.11,2.148,2.147.654,1.317-1.9.917-5.183,4.069-3.166a14.885,14.885,0,0,1,4.2,4.149,5.564,5.564,0,0,0,4.079,2.584C434.2,762.754,437.67,763.189,437.676,763.192Z" transform="translate(-415.808 -747.323)"/><g transform="translate(17.335 13.947)"><path class="i" d="M434.872,764.087s1.265-2.44,3.089-1.181,1.226,4.406-3.232,4.929" transform="translate(-434.729 -762.545)"/><path class="k" d="M435.9,766.017a.509.509,0,0,1-.346-.881l1.068-.993a.508.508,0,0,1,.692.745l-1.068.992A.512.512,0,0,1,435.9,766.017Z" transform="translate(-434.785 -762.668)"/></g></g></g><path class="c" d="M396.008,796.2a5.381,5.381,0,0,1-1.481-.016c-3.851-.55-15.515-1.9-17.383-1.795-1.25.071-1.085,7.532-2.142,11.2,2.87,6.14,11.24,6.405,20.7,7.069,3.337.234,15.368.968,17.72-1.417l2.713-28.264c-4.975.679-9.043,6.478-11.469,9.033A13.691,13.691,0,0,1,396.008,796.2Z" transform="translate(-337.268 -750.31)"/><path class="i" d="M351.31,789.008c-2,.511-8.56.584-8.773,1.708.4,1.435,1.673.548,2.975.518" transform="translate(-334.548 -750.815)"/><path class="i" d="M457.654,835.66s-2.147,3.375-4.872,3.227a13.58,13.58,0,0,1-5.575-1.992l-4.918,3.74s-.812.566-1.438.1-.561-1.912-.561-1.912-1.262,1.36-2.485.85-1.338-1.458.113-2.576a1.183,1.183,0,0,1-1.93-.354c-.591-1.126,1.044-2.111,1.838-2.847s3.661-3.566,3.661-3.566l-6.254.434a1.587,1.587,0,0,1-1.2-1.361c-.074-1.1,4.248-1.229,4.248-1.229l7.693-.532a48.292,48.292,0,0,1,5.718,2.092" transform="translate(-342.214 -754.052)"/><line class="l" y1="4.937" x2="5.404" transform="translate(97.9 80.021)"/><line class="l" y1="5.496" x2="6.293" transform="translate(95.007 78.115)"/><path class="i" d="M372.217,806.577c-3.887-2.963-18.461-11.641-23.634-10.93a6.946,6.946,0,0,0-2.628.792c-.948.486-2.015.616-3,1.023-2.906,1.189-6.03-.843-8.985-.683-1.359-2.663,7.061-3.163,8.786-3.931,3.286-1.46,4.989-3.8,8.808-3.886,3.108-.077,2.676.514,5.519,1.28,2.387.646,14.2,4.456,16.616,5.261" transform="translate(-333.818 -750.811)"/><path class="i" d="M452.95,828.543l9.736-16.089,9.63,7.551s-12.55,15.21-15.276,15.974" transform="translate(-343.799 -752.779)"/><path class="c" d="M471.078,818.558c1.965-2.517,1.536-9.005-.527-15.487-2.69-8.454-8.862-11.405-17.309-16.758-3.675-2.329-3.758-1.773-6.32-3.515l2.412,18.634c2.631,1.394,10.477,1.986,9.706,8.48-.177,1.493,1.007,2.426.049,4.817Z" transform="translate(-343.294 -750.295)"/><line class="m" y1="10.634" x2="1.554" transform="translate(38.245 45.067)"/><g transform="translate(80.396 12.893)"><g transform="translate(0.054 2.418)"><path class="k" d="M422.441,766.246a.66.66,0,0,1-.534-.287,1.756,1.756,0,0,1-.231-1.374l.059-.161a.5.5,0,0,1,.172-.231.713.713,0,0,1,1.043.159,1.74,1.74,0,0,1,.156,1.349A.711.711,0,0,1,422.441,766.246Z" transform="translate(-421.624 -764.034)"/></g><g transform="translate(4.904 2.558)"><path class="k" d="M427.764,766.4a.674.674,0,0,1-.535-.28,1.778,1.778,0,0,1-.274-1.346l.061-.182a.513.513,0,0,1,.153-.217.754.754,0,0,1,.482-.185.7.7,0,0,1,.576.312,1.765,1.765,0,0,1,.2,1.325A.71.71,0,0,1,427.764,766.4Z" transform="translate(-426.918 -764.187)"/></g><path class="k" d="M425.56,768.179c.051,0,.1,0,.154,0a.323.323,0,0,0,0-.646,1.385,1.385,0,0,1-1.143-.376c.384-1.242.911-3.148.029-4.432a3.146,3.146,0,0,0-2.549-1.184.312.312,0,0,0-.341.3.326.326,0,0,0,.3.342,2.536,2.536,0,0,1,2.059.906c.754,1.094.149,3.023-.173,4.062a.336.336,0,0,0,.084.337A2.005,2.005,0,0,0,425.56,768.179Z" transform="translate(-421.578 -761.407)"/><path class="k" d="M425.7,768.306l-.157-.005a2.137,2.137,0,0,1-1.668-.722.475.475,0,0,1-.121-.473c.321-1.024.907-2.91.192-3.946a2.414,2.414,0,0,0-1.954-.848.457.457,0,1,1,.072-.912,3.239,3.239,0,0,1,2.633,1.24c.938,1.364.341,3.412.016,4.463a1.237,1.237,0,0,0,.968.288.458.458,0,1,1,.018.916Zm-3.707-6.777v.135a.19.19,0,0,0,.017.378,2.657,2.657,0,0,1,2.16.965c.789,1.143.177,3.112-.152,4.17a.207.207,0,0,0,.046.208,1.868,1.868,0,0,0,1.485.648h.05c.034,0,.067,0,.1,0a.187.187,0,0,0,0-.375,1.535,1.535,0,0,1-1.234-.41l-.064-.058.026-.085c.3-.979.936-3.022.047-4.314a3.013,3.013,0,0,0-2.445-1.125Z" transform="translate(-421.566 -761.395)"/><path class="k" d="M426.262,772.036c-.049,0-.1,0-.151,0a2.715,2.715,0,0,1-2.225-1.213.508.508,0,1,1,.871-.521,1.731,1.731,0,0,0,1.4.717,1.985,1.985,0,0,0,1.824-.882.51.51,0,0,1,.823.6A3.118,3.118,0,0,1,426.262,772.036Z" transform="translate(-421.754 -762.11)"/><path class="k" d="M429.875,763.356a.5.5,0,0,1-.238-.06c-.956-.506-1.824-.88-2.713-.273a.509.509,0,1,1-.572-.842,3.436,3.436,0,0,1,3.762.217.509.509,0,0,1-.239.958Z" transform="translate(-421.948 -761.42)"/></g><line class="m" x2="1.345" y2="6.325" transform="translate(58.757 46.834)"/><line class="m" y1="2.544" x2="2.883" transform="translate(115.951 61.891)"/></g><line class="n" y1="34.155" x2="51.481" transform="translate(273.724 864.021)"/><circle class="o" cx="9.162" cy="9.162" r="9.162" transform="translate(245.064 749.757)"/><line class="n" y1="66.8" x2="100.683" transform="translate(247.556 833.268)"/><g transform="translate(225.939 742.169)"><g transform="translate(0 22.52)"><path class="p" d="M297.695,795.519c-1.973-2.612-4.242-5.028-5.946-7.231-2.152-2.782-3.957-5.9-6.462-8.393,0,0-4.424-4.4-9.142-1.239s-11.247,6.816.068,19.145c4.1,4.473,19.413,23.706,24.7,12.731C303.571,805.013,301.066,799.98,297.695,795.519Z" transform="translate(-231.637 -774.476)"/><path class="p" d="M280.094,777.885s-8.7-4.089-14.645-3.655c-10.411.769-19.086,6.79-21.652,17.4-1,4.139,2.908,30.409,2.06,35.738l36.22-.608s3.307-20.964,1.21-35.087C282.413,785.794,281.6,780.835,280.094,777.885Z" transform="translate(-229.433 -774.198)"/><line class="q" y2="36.42" transform="translate(40.08 11.315)"/><path class="i" d="M296.493,814.876c8.965,2.1,26.665,5.523,28.607,4.664,2.417-2.842,4-6.405,1.241-7.527-6.5-2.64-28.2-11.555-32.439-7.491C289.12,809.114,291.971,813.815,296.493,814.876Z" transform="translate(-233.437 -776.651)"/><path class="p" d="M247.879,803.293c2.781-3.821,6.117-7.42,7.61-12,1.042-3.186,4.034-9.935.667-12.046-2.647-1.657-10.918,1.025-13.861,5.813-7.843,12.746-13.452,21.747-13.452,21.747s-3.18,9.522,3.935,12.8c.908.417,5.5-3.584,6.4-3.939C245.08,813.351,244.428,808.033,247.879,803.293Z" transform="translate(-228.135 -774.58)"/><path class="r" d="M292.9,825.2H272.858l7.28-28.391h20.038Z" transform="translate(-231.882 -776.092)"/><path class="s" d="M292.9,825.2H272.858l7.28-28.391h20.038Z" transform="translate(-231.882 -776.092)"/><g transform="translate(34.518 32.349)"><path class="i" d="M266.054,815.748c-1.134-.552,2-1.442,2.794-2,1.287-.911,2.244-.748,3.782-.65,1.441.087,2.858.158,4.291.27,1.958.159,2.349.116,3.945-1.076.978-.73,3.6-4.281,4.505-2.08,1.529,3.7-1.136,8.456-3.2,9.468-3.176,1.554-7.812.865-11.2,1.424" transform="translate(-265.809 -809.505)"/><path class="t" d="M285.688,810.2s-1.924,3.187-3.524,4.1a4.768,4.768,0,0,1-3.1.592" transform="translate(-266.92 -809.563)"/><path class="t" d="M286.7,811.95s-1.275,2.863-2.74,3.751a9.829,9.829,0,0,1-3.661,1.065" transform="translate(-267.023 -809.71)"/><path class="t" d="M286.879,813.522s-1.275,2.861-2.735,3.751a9.838,9.838,0,0,1-3.665,1.065" transform="translate(-267.038 -809.841)"/><path class="i" d="M270.191,813.432c3.1-1.37,5.235-5.275,6.781-3.251.851,1.115-1.675,2.418-2.185,3.86" transform="translate(-266.176 -809.514)"/></g><path class="i" d="M268.31,813.459l-24.163-2.319L232.883,822s31.79,1.453,35.06-.728Z" transform="translate(-228.533 -777.293)"/></g><g transform="translate(28.539)"><line class="g" x2="0.998" y2="0.926" transform="translate(1.923 5.383)"/><path class="h" d="M263.695,758.259a.656.656,0,1,1-.656-.657A.654.654,0,0,1,263.695,758.259Z" transform="translate(-259.543 -750.287)"/><path class="u" d="M272.341,770.741l-.169,6.992-1.5,6-8.422-6.021s.4-3.665.972-8.358Z" transform="translate(-259.532 -751.272)"/><path class="v" d="M272.991,771.658a4.359,4.359,0,0,1-3.984-.372l3.83,5Z" transform="translate(-260.098 -751.434)"/><path class="u" d="M268.047,769.538c1.678.42,4.148.977,5.56.044,3.415-2.249,2.433-8.432,2.39-10.344-.037-1.546-.178-3.652-1.217-4.915-.85-1.027-2.335-.965-3.538-1.146a12.765,12.765,0,0,0-4.556-.129,11.179,11.179,0,0,0-4.559,2.262,59.629,59.629,0,0,1,1,12.914s4.271,1.136,4.609,1.231C267.833,769.482,267.942,769.509,268.047,769.538Z" transform="translate(-259.521 -749.893)"/><path class="o" d="M260.12,761.1c-3.7-10.272,5.857-11.711,9.258-11.458,2.288.165,5.115,1.19,6.4,3.223a5.913,5.913,0,0,1-.013,6.049c-.562-2.489-1.57-7.281-5.1-5.02-1.9,1.221-2.242,2.83-3.431,4.379a5.227,5.227,0,0,1-3.822,2.416C263.377,760.7,260.12,761.1,260.12,761.1Z" transform="translate(-259.283 -749.619)"/><g transform="translate(1.344 9.301)"><path class="u" d="M264.547,761.211s-1.185-2.281-2.9-1.1-1.144,4.121,3.032,4.613" transform="translate(-260.75 -759.77)"/><line class="w" x2="0.997" y2="0.927" transform="translate(1.884 1.731)"/></g><g transform="translate(8.512 9.628)"><path class="x" d="M273.994,764.981a.344.344,0,0,1-.125-.664c.562-.218.645-.389.657-.435.04-.156-.23-.483-.447-.745-.472-.57-1.119-1.351-.535-2.29a1.714,1.714,0,0,1,1.332-.712,1.829,1.829,0,0,1,1.5.5.343.343,0,1,1-.511.458,1.169,1.169,0,0,0-.933-.27,1.053,1.053,0,0,0-.806.392c-.3.482-.019.883.481,1.487.35.422.711.859.583,1.355-.1.368-.437.656-1.073.9A.326.326,0,0,1,273.994,764.981Z" transform="translate(-268.97 -760.127)"/><g transform="translate(5.838 1.726)"><path class="y" d="M276.044,762.723a.319.319,0,0,1-.244.384.328.328,0,0,1-.387-.247.322.322,0,0,1,.63-.136Z" transform="translate(-274.983 -762.049)"/><path class="x" d="M275.209,762.885a.516.516,0,0,1,.394-.614.524.524,0,0,1,.614.394.5.5,0,0,1-.071.388.507.507,0,0,1-.325.225.525.525,0,0,1-.106.01h0A.515.515,0,0,1,275.209,762.885Zm.475-.235a.121.121,0,0,0-.081.055.119.119,0,0,0-.016.094.126.126,0,0,0,.127.1l.027,0a.125.125,0,0,0,.08-.056.122.122,0,0,0,.018-.1.131.131,0,0,0-.145-.1Z" transform="translate(-274.966 -762.032)"/><path class="x" d="M275.693,763.5a.744.744,0,0,1-.728-.582.729.729,0,0,1,.1-.563.719.719,0,0,1,.472-.326.787.787,0,0,1,.149-.015.751.751,0,0,1,.734.585.727.727,0,0,1-.105.564.742.742,0,0,1-.469.323A.752.752,0,0,1,275.693,763.5Z" transform="translate(-274.945 -762.011)"/></g><g transform="translate(0.556 1.804)"><path class="y" d="M270.28,762.81a.324.324,0,0,1-.247.384.323.323,0,0,1-.137-.631A.327.327,0,0,1,270.28,762.81Z" transform="translate(-269.218 -762.134)"/><path class="x" d="M269.441,762.969a.511.511,0,0,1,.4-.613.526.526,0,0,1,.612.395.52.52,0,0,1-.4.614.5.5,0,0,1-.111.011h0A.515.515,0,0,1,269.441,762.969Zm.477-.233a.123.123,0,0,0-.1.15.126.126,0,0,0,.124.1h0l.026,0a.126.126,0,0,0,.1-.152.134.134,0,0,0-.144-.1Z" transform="translate(-269.201 -762.117)"/><path class="x" d="M269.923,763.584a.744.744,0,0,1-.727-.59.757.757,0,0,1,.1-.556.767.767,0,0,1,.475-.326.759.759,0,0,1,.884.569.751.751,0,0,1-.571.887A.689.689,0,0,1,269.923,763.584Z" transform="translate(-269.18 -762.096)"/></g><path class="x" d="M268.917,761.512a.344.344,0,0,1-.143-.656,2.327,2.327,0,0,1,2.161-.015.343.343,0,1,1-.324.6,1.665,1.665,0,0,0-1.551.034A.335.335,0,0,1,268.917,761.512Z" transform="translate(-268.573 -760.166)"/></g></g><path class="q" d="M260.263,774.733c-.261,1.309-2.461,2.585-3.657,3.492.836,1.888,3.115.952,4.431,2.151a9.319,9.319,0,0,0-1.98,1.987c2.887,1.106,8.343,1.473,10.556,2.211" transform="translate(-230.52 -751.723)"/><path class="q" d="M273.092,774.733a15.139,15.139,0,0,0,3.676,1.511,5.377,5.377,0,0,1-1.675,1.877c.919.211.9.674,1.409,1.236-1.913,1.586-2.937,3.717-4.8,5.232.326.039.387-.145.654-.261" transform="translate(-231.785 -751.723)"/><line class="q" y1="12.057" x2="1.723" transform="translate(17.44 43.678)"/></g><g transform="translate(311.588 792.744)"><path class="i" d="M326.936,807.808c.965-.485,8-4.648,8.552-2.25.469,2.044-4.389,4.4-5.765,4.854,0,0,11.488-3.135,12.251-1.524s-2.452,2.238-2.484,2.018c1.51.081,4.107-.5,5.118.36,1.688,1.436-2.515,2.329-3.616,2.595,3.667-.142,3.139,2.146,1.074,2.6a34.914,34.914,0,0,1-5.426.956c2.7-.168,2.837,1.979.142,2.435-7.423,1.257-15.966,2.3-15.108-6.377a6.022,6.022,0,0,1,3.917-5.032C326.052,808.241,326.5,808.027,326.936,807.808Z" transform="translate(-321.615 -804.819)"/><line class="t" y1="1.488" x2="7.927" transform="translate(11.516 5.746)"/><line class="t" y1="1.538" x2="8.192" transform="translate(12.112 8.867)"/><line class="t" y1="0.719" x2="3.832" transform="translate(13.054 12.519)"/></g><g transform="translate(221.337 818.037)"><path class="z" d="M380.116,933.38V832.424H223.111V933.6" transform="translate(-223.111 -832.424)"/></g><path class="n" d="M374.962,840.357H229.291v88.869" transform="translate(-2.292 -15.052)"/><path class="n" d="M217.389,944.144H458.725" transform="translate(-1.295 -23.747)"/><line class="n" y1="63.215" x2="98.947" transform="translate(258.606 837.674)"/><line class="n" y1="29.802" x2="46.647" transform="translate(295.315 865.766)"/><path class="k" d="M273.527,768.691c.041,0,.083,0,.125,0a2.242,2.242,0,0,0,1.835-1,.419.419,0,1,0-.718-.43,1.428,1.428,0,0,1-1.155.591,1.637,1.637,0,0,1-1.5-.727.42.42,0,0,0-.678.5A2.57,2.57,0,0,0,273.527,768.691Z" transform="translate(-5.816 -8.902)"/><g transform="translate(201.931 877.913)"><path class="aa" d="M239.277,909.6c-3.66,13.465-22.223,11.329-25.371,25.176q-5.987-5.916-11.975-11.827c3.658-13.465,22.224-11.326,25.374-25.175Z" transform="translate(-201.931 -897.775)"/><g transform="translate(2.682 4.674)"><path class="ab" d="M236.37,909.323q-3.259-3.224-6.52-6.447a1.191,1.191,0,0,1-2.1.541c-.025-.027-.046-.053-.066-.073-5.347,8.77-17.117,8.975-22.824,17.4.024.021.05.04.073.062a3.128,3.128,0,0,1,.536,3.147c-.023.07-.05.136-.077.2q3.271,3.23,6.54,6.462c.016-.073.038-.147.059-.214a1.2,1.2,0,0,1,2.125-.516c5.473-8.644,17.239-8.847,22.822-17.383A3.228,3.228,0,0,1,236.37,909.323Z" transform="translate(-204.858 -902.876)"/></g><path class="aa" d="M233.241,909.839a1.409,1.409,0,0,1,.1,1.9,1.265,1.265,0,0,1-1.815.011,1.306,1.306,0,0,1-.011-1.814A1.163,1.163,0,0,1,233.241,909.839Z" transform="translate(-204.379 -898.757)"/><path class="aa" d="M211.872,923.8a1.372,1.372,0,0,1,.05,1.848,1.108,1.108,0,0,1-1.688.127,1.49,1.49,0,0,1-.145-1.934A1.211,1.211,0,0,1,211.872,923.8Z" transform="translate(-202.59 -899.925)"/><path class="aa" d="M227.362,914.409c2.431,2.341,1.536,5.838-1.418,7.184-3.1,1.415-7.384,1.215-9.939-1.247-2.435-2.341-1.51-5.823,1.436-7.166C220.54,911.767,224.811,911.948,227.362,914.409Z" transform="translate(-202.993 -898.991)"/><g transform="translate(15.065 14.759)"><path class="ab" d="M225.958,918.375a1.219,1.219,0,0,0-.007-.695,1.465,1.465,0,0,0-.457-.664l-.13-.115a2.047,2.047,0,0,0-.58-.368,1.9,1.9,0,0,0-.717-.146,3.5,3.5,0,0,0-.91.111,7.064,7.064,0,0,0-1,.331c-.5-.53-.994-1.06-1.516-1.593a3,3,0,0,1,.384-.165,4.014,4.014,0,0,1,.948-.2l-.161-.752a4.944,4.944,0,0,0-1.164.253,4.164,4.164,0,0,0-.6.261c-.254-.246-.511-.5-.776-.749-.342.184-.43.123-.894.388q.455.433.891.864a2.608,2.608,0,0,0-.5.5,1.693,1.693,0,0,0-.33.706,1.157,1.157,0,0,0,.058.649,1.436,1.436,0,0,0,.388.537l.13.115a1.837,1.837,0,0,0,.741.426,2.311,2.311,0,0,0,.817.081,3.944,3.944,0,0,0,.891-.184c.135-.042.273-.093.41-.142.522.549,1.044,1.1,1.578,1.646-.1.031-.2.061-.3.088-.2.054-.4.1-.61.138s-.407.058-.587.07l.165.791a5.455,5.455,0,0,0,1.336-.219,3.842,3.842,0,0,0,.629-.23c.307.3.618.6.94.905a8.861,8.861,0,0,1,.768-.456c-.319-.3-.626-.6-.921-.891a3.81,3.81,0,0,0,.686-.6A1.853,1.853,0,0,0,225.958,918.375Zm-5.277-1.067a1.355,1.355,0,0,1-.484-.015.923.923,0,0,1-.395-.212l-.115-.1a.627.627,0,0,1-.184-.691,1.23,1.23,0,0,1,.365-.545c.472.477.929.956,1.382,1.432A2.834,2.834,0,0,1,220.681,917.308Zm4.23.979a1.435,1.435,0,0,1-.645.775c-.519-.53-1.013-1.059-1.513-1.59.158-.061.3-.107.43-.146a2.881,2.881,0,0,1,.587-.107,1.057,1.057,0,0,1,.454.058,1.116,1.116,0,0,1,.365.223l.115.1A.653.653,0,0,1,224.911,918.287Z" transform="translate(-218.374 -913.884)"/></g></g><path class="ac" d="M235.923,894.9c-3.546-4.63,1.022-5.6,2.166-9.352.793-2.6-1.8-7.065-3.408-3.73,5.362,4.83,10.3-4.084,4.4-7.767" transform="translate(-2.737 -17.875)"/><g transform="translate(303.705 736.245)"><g transform="translate(15.594)"><path class="aa" d="M338.885,758.043a.58.58,0,0,1-.091.242.474.474,0,0,1-.206.158l-.087.038a.515.515,0,0,1-.485-.052.868.868,0,0,1-.293-.288c.388-.155.774-.311,1.157-.476a.288.288,0,0,1,0,.047A1.334,1.334,0,0,1,338.885,758.043Z" transform="translate(-330.675 -744.369)"/><path class="aa" d="M340.368,755.936a.773.773,0,0,1,.267.249c-.392.179-.787.353-1.178.52,0-.031,0-.061-.006-.088a1.189,1.189,0,0,1,.025-.323.474.474,0,0,1,.111-.222.582.582,0,0,1,.208-.138l.087-.038A.544.544,0,0,1,340.368,755.936Z" transform="translate(-330.82 -744.217)"/><path class="aa" d="M340.277,743.153a34.9,34.9,0,0,1-10.246,4.339c.494,8.249,4.778,15.58,9.456,22.147a67.215,67.215,0,0,0,9.773-4.544C344.954,758.325,341.547,751.133,340.277,743.153Zm.418,12.9a2.339,2.339,0,0,1-.075.731l-.549-.086a2.208,2.208,0,0,0,.049-.312,3.325,3.325,0,0,0,.013-.344,2.76,2.76,0,0,0-.038-.331.327.327,0,0,0-.017-.067c-.438.2-.877.395-1.318.584.018.119.032.233.039.343a1.7,1.7,0,0,1-.023.494.965.965,0,0,1-.188.4,1,1,0,0,1-.4.289l-.1.043a1.026,1.026,0,0,1-.421.081,1.013,1.013,0,0,1-.438-.1,1.351,1.351,0,0,1-.411-.32,1.559,1.559,0,0,1-.234-.334c-.24.094-.482.188-.723.279-.074-.222-.108-.33-.183-.549.228-.086.457-.175.686-.263a2.6,2.6,0,0,1-.074-.363,2.1,2.1,0,0,1,.025-.648l.521.076a1.786,1.786,0,0,0-.024.527,1.373,1.373,0,0,0,.04.214c.432-.17.866-.348,1.293-.53a2.931,2.931,0,0,1-.04-.476,1.5,1.5,0,0,1,.076-.487.846.846,0,0,1,.212-.336,1.172,1.172,0,0,1,.341-.217l.1-.043a1.1,1.1,0,0,1,.515-.093,1.122,1.122,0,0,1,.46.144,1.346,1.346,0,0,1,.392.353,2.069,2.069,0,0,1,.129.189c.282-.13.565-.264.848-.4.075.212.113.321.183.541-.261.126-.526.249-.788.37A2.2,2.2,0,0,1,340.695,756.051Z" transform="translate(-330.031 -743.153)"/><g transform="translate(1.537 2.08)"><path class="ab" d="M338.885,758.043a.58.58,0,0,1-.091.242.474.474,0,0,1-.206.158l-.087.038a.515.515,0,0,1-.485-.052.868.868,0,0,1-.293-.288c.388-.155.774-.311,1.157-.476a.288.288,0,0,1,0,.047A1.334,1.334,0,0,1,338.885,758.043Z" transform="translate(-332.212 -746.449)"/><path class="ab" d="M340.368,755.936a.773.773,0,0,1,.267.249c-.392.179-.787.353-1.178.52,0-.031,0-.061-.006-.088a1.189,1.189,0,0,1,.025-.323.474.474,0,0,1,.111-.222.582.582,0,0,1,.208-.138l.087-.038A.544.544,0,0,1,340.368,755.936Z" transform="translate(-332.357 -746.297)"/><path class="ab" d="M346.849,763.3a54.462,54.462,0,0,1-6.97-17.307.738.738,0,0,1-1.192-.464.53.53,0,0,1-.009-.107,35.2,35.2,0,0,1-5.692,2.355.6.6,0,0,1,.018.1,1.548,1.548,0,0,1-1.227,1.415c-.025.007-.049.01-.071.018.877,6.371,3.844,12.09,7.27,17.445.023-.008.043-.021.064-.027a1.95,1.95,0,0,1,2.128.874c1.846-.759,3.656-1.567,5.445-2.451A1.268,1.268,0,0,1,346.849,763.3Zm-7.91-6.543a1.7,1.7,0,0,1-.023.494.966.966,0,0,1-.188.4.994.994,0,0,1-.4.289l-.1.043a1.026,1.026,0,0,1-.421.081,1.013,1.013,0,0,1-.438-.1,1.35,1.35,0,0,1-.411-.32,1.56,1.56,0,0,1-.235-.334c-.24.094-.482.188-.723.279-.074-.222-.108-.33-.183-.549.228-.086.457-.175.686-.263a2.6,2.6,0,0,1-.074-.363,2.1,2.1,0,0,1,.025-.648l.521.076a1.785,1.785,0,0,0-.024.527,1.38,1.38,0,0,0,.04.214c.432-.17.866-.348,1.293-.53a2.924,2.924,0,0,1-.04-.476,1.5,1.5,0,0,1,.076-.487.846.846,0,0,1,.212-.336,1.172,1.172,0,0,1,.341-.217l.1-.043a1.1,1.1,0,0,1,.515-.093,1.121,1.121,0,0,1,.46.144,1.346,1.346,0,0,1,.392.353,2.063,2.063,0,0,1,.129.189c.282-.13.565-.264.848-.4.075.212.113.321.183.541-.261.126-.526.249-.788.37a2.2,2.2,0,0,1,.122.639,2.338,2.338,0,0,1-.075.731l-.549-.086a2.217,2.217,0,0,0,.049-.312,3.342,3.342,0,0,0,.013-.344,2.773,2.773,0,0,0-.038-.331.324.324,0,0,0-.017-.067c-.438.2-.877.395-1.318.584C338.919,756.535,338.932,756.648,338.94,756.758Z" transform="translate(-331.708 -745.423)"/></g><path class="aa" d="M338.885,758.043a.58.58,0,0,1-.091.242.474.474,0,0,1-.206.158l-.087.038a.515.515,0,0,1-.485-.052.868.868,0,0,1-.293-.288c.388-.155.774-.311,1.157-.476a.288.288,0,0,1,0,.047A1.334,1.334,0,0,1,338.885,758.043Z" transform="translate(-330.675 -744.369)"/><path class="aa" d="M340.368,755.936a.773.773,0,0,1,.267.249c-.392.179-.787.353-1.178.52,0-.031,0-.061-.006-.088a1.189,1.189,0,0,1,.025-.323.474.474,0,0,1,.111-.222.582.582,0,0,1,.208-.138l.087-.038A.544.544,0,0,1,340.368,755.936Z" transform="translate(-330.82 -744.217)"/><path class="aa" d="M342.046,755.292a3.659,3.659,0,1,0-1,5.389A3.892,3.892,0,0,0,342.046,755.292Zm-1.545,2.243a2.217,2.217,0,0,0,.049-.312,3.334,3.334,0,0,0,.013-.344,2.769,2.769,0,0,0-.038-.331.324.324,0,0,0-.017-.067c-.438.2-.877.395-1.318.584.018.119.032.233.039.343a1.7,1.7,0,0,1-.023.494.966.966,0,0,1-.188.4.994.994,0,0,1-.4.289l-.1.043a1.026,1.026,0,0,1-.421.081,1.013,1.013,0,0,1-.438-.1,1.351,1.351,0,0,1-.411-.32,1.56,1.56,0,0,1-.235-.334c-.24.094-.482.188-.723.279-.074-.222-.108-.33-.183-.549.228-.086.457-.175.686-.263a2.6,2.6,0,0,1-.074-.363,2.1,2.1,0,0,1,.025-.648l.521.076a1.785,1.785,0,0,0-.024.527,1.377,1.377,0,0,0,.04.214c.432-.171.866-.348,1.293-.53a2.923,2.923,0,0,1-.04-.476,1.5,1.5,0,0,1,.076-.487.847.847,0,0,1,.212-.336,1.172,1.172,0,0,1,.341-.217l.1-.043a1.1,1.1,0,0,1,.515-.093,1.122,1.122,0,0,1,.46.144,1.347,1.347,0,0,1,.392.353,2.063,2.063,0,0,1,.129.189c.282-.13.565-.264.848-.4.075.212.113.321.183.541-.261.126-.526.249-.788.37a2.2,2.2,0,0,1,.122.64,2.338,2.338,0,0,1-.075.731Z" transform="translate(-330.461 -743.992)"/><path class="aa" d="M342.891,765.442a.816.816,0,0,0,.283-1.21,1.075,1.075,0,0,0-1.286-.524.8.8,0,0,0-.323,1.191A1.137,1.137,0,0,0,342.891,765.442Z" transform="translate(-330.986 -744.87)"/><path class="aa" d="M336.592,750.2a1,1,0,0,0,.672-1.039c-.078-.39-.489-.552-.945-.373a1.033,1.033,0,0,0-.713,1.02A.685.685,0,0,0,336.592,750.2Z" transform="translate(-330.497 -743.619)"/><path class="ab" d="M341.211,757.061a2.2,2.2,0,0,0-.122-.639c.262-.121.527-.245.788-.37-.071-.221-.108-.33-.183-.541-.283.133-.566.267-.848.4a2.063,2.063,0,0,0-.129-.189,1.347,1.347,0,0,0-.392-.353,1.122,1.122,0,0,0-.46-.144,1.1,1.1,0,0,0-.515.093l-.1.043a1.172,1.172,0,0,0-.341.217.846.846,0,0,0-.212.336,1.5,1.5,0,0,0-.076.487,2.927,2.927,0,0,0,.04.476c-.427.181-.86.359-1.293.53a1.373,1.373,0,0,1-.04-.214,1.784,1.784,0,0,1,.024-.527l-.521-.076a2.1,2.1,0,0,0-.025.648,2.6,2.6,0,0,0,.074.363c-.229.088-.458.177-.686.263.075.219.109.327.183.549.241-.091.483-.184.723-.279a1.559,1.559,0,0,0,.235.334,1.35,1.35,0,0,0,.411.32,1.013,1.013,0,0,0,.438.1,1.026,1.026,0,0,0,.421-.081l.1-.043a.994.994,0,0,0,.4-.289.966.966,0,0,0,.188-.4,1.7,1.7,0,0,0,.023-.494c-.007-.11-.021-.224-.039-.343.442-.189.88-.386,1.318-.584a.325.325,0,0,1,.017.067,2.773,2.773,0,0,1,.038.331,3.342,3.342,0,0,1-.013.344,2.213,2.213,0,0,1-.049.313l.549.086A2.338,2.338,0,0,0,341.211,757.061Zm-2.455.445a1.334,1.334,0,0,1,0,.332.58.58,0,0,1-.091.242.475.475,0,0,1-.206.158l-.087.038a.515.515,0,0,1-.485-.052.867.867,0,0,1-.293-.288c.388-.155.774-.311,1.157-.476A.287.287,0,0,1,338.757,757.507Zm.427-.855c0-.031,0-.061-.006-.088a1.189,1.189,0,0,1,.025-.323.474.474,0,0,1,.111-.222.583.583,0,0,1,.208-.138l.087-.038a.543.543,0,0,1,.487.039.772.772,0,0,1,.267.249C339.97,756.31,339.575,756.484,339.184,756.652Z" transform="translate(-330.548 -744.164)"/></g><g transform="translate(29.491 1.59)"><path class="ad" d="M357.908,744.888c-2.969,7.79-6.849,15.088-12.709,21.1a36.311,36.311,0,0,1,9.971,5.844c6.567-5.526,10.022-13.644,12.59-21.622A69.7,69.7,0,0,0,357.908,744.888Z" transform="translate(-345.199 -744.888)"/><g transform="translate(2.542 2.4)"><path class="ae" d="M359.761,747.507c1.848.944,3.642,1.949,5.424,3.016a2.027,2.027,0,0,0,.591,2.317l.06.035c-2.335,6.176-5.265,12.2-10.027,16.886a.574.574,0,0,0-.059-.049,1.6,1.6,0,0,0-1.941-.144.742.742,0,0,0-.075.077,36.689,36.689,0,0,0-5.494-3.282.509.509,0,0,0,.085-.074.764.764,0,0,0-.354-1.28,56.659,56.659,0,0,0,10.1-16.548,1.316,1.316,0,0,0,1.657-.848C359.743,747.578,359.752,747.543,359.761,747.507Z" transform="translate(-347.973 -747.507)"/></g><path class="ad" d="M354.555,758.8a3.8,3.8,0,1,0,5.113-2.51A4.046,4.046,0,0,0,354.555,758.8Z" transform="translate(-345.971 -745.826)"/><path class="ad" d="M362.667,752.468a.852.852,0,0,0-1.185.517,1.115,1.115,0,0,0,.362,1.4.827.827,0,0,0,1.127-.315.845.845,0,0,0,.067-.153A1.186,1.186,0,0,0,362.667,752.468Z" transform="translate(-346.554 -745.516)"/><path class="ad" d="M354.121,766.467a.851.851,0,0,0-1.2.041.777.777,0,0,0-.081.1,1.12,1.12,0,0,0-.067,1.443.829.829,0,0,0,1.278-.1A1.185,1.185,0,0,0,354.121,766.467Z" transform="translate(-345.814 -746.677)"/><g transform="translate(9.827 11.111)"><path class="h" d="M358.474,760.052l-.6-.305-1.952,1.739.6.305.464.237.6.305.464.237.6.305,1.952-1.739-.6-.305-1.373,1.223-.464-.237,1.373-1.223-.6-.305-1.373,1.223-.464-.237Z" transform="translate(-355.925 -757.244)"/><g transform="translate(0)"><path class="h" d="M359.812,760.415l.151-2.5-.6-.305-.151,2.5Z" transform="translate(-356.201 -757.064)"/><path class="h" d="M360.97,761.007l.151-2.5-.6-.305-.151,2.5Z" transform="translate(-356.298 -757.114)"/><path class="h" d="M358.027,757.015l-1.8,1.816-.3,2.427,1.934-1.724h0l.016-.016.043.022.555.283.151-2.5-.518-.265h0Z" transform="translate(-355.925 -757.015)"/></g></g></g><g transform="translate(10.864 7.004)"><path class="ad" d="M334.721,750.8c2.969,7.79,6.849,15.088,12.709,21.1a36.311,36.311,0,0,0-9.971,5.844c-6.567-5.526-10.023-13.644-12.59-21.622A69.7,69.7,0,0,1,334.721,750.8Z" transform="translate(-324.869 -750.797)"/><g transform="translate(2.156 2.4)"><path class="ae" d="M333.3,753.416c-1.848.944-3.643,1.949-5.424,3.016a2.027,2.027,0,0,1-.591,2.317l-.06.035c2.335,6.176,5.264,12.2,10.027,16.886a.5.5,0,0,1,.059-.049,1.6,1.6,0,0,1,1.941-.144.849.849,0,0,1,.075.077,36.648,36.648,0,0,1,5.494-3.282.547.547,0,0,1-.085-.074.766.766,0,0,1,.354-1.281,56.655,56.655,0,0,1-10.1-16.547,1.316,1.316,0,0,1-1.657-.848Q333.31,753.47,333.3,753.416Z" transform="translate(-327.222 -753.416)"/></g><path class="ad" d="M339.441,764.709a3.8,3.8,0,1,1-5.113-2.51A4.045,4.045,0,0,1,339.441,764.709Z" transform="translate(-325.464 -751.734)"/><path class="ad" d="M331.863,758.377a.85.85,0,0,1,1.135.392.862.862,0,0,1,.049.125,1.115,1.115,0,0,1-.361,1.4.827.827,0,0,1-1.127-.315.777.777,0,0,1-.067-.153A1.183,1.183,0,0,1,331.863,758.377Z" transform="translate(-325.415 -751.425)"/><path class="ad" d="M340.405,772.375a.852.852,0,0,1,1.285.143,1.12,1.12,0,0,1,.067,1.443.831.831,0,0,1-1.174.027.9.9,0,0,1-.105-.123A1.185,1.185,0,0,1,340.405,772.375Z" transform="translate(-326.151 -752.586)"/><g transform="translate(7.91 11.111)"><path class="h" d="M335.79,765.961l.6-.305,1.952,1.739-.6.305-.464.237-.6.305-.464.237-.6.305-1.952-1.739.6-.305,1.373,1.223.464-.237-1.373-1.223.6-.305,1.373,1.223.464-.237Z" transform="translate(-333.516 -763.153)"/><path class="h" d="M334.812,766.324l-.151-2.5.6-.305.151,2.5Z" transform="translate(-333.599 -762.973)"/><path class="h" d="M333.653,766.916l-.151-2.5.6-.305.151,2.5Z" transform="translate(-333.502 -763.023)"/><path class="h" d="M336.418,762.924l1.8,1.816.3,2.427-1.934-1.724h0l-.016-.016-.043.022-.555.283-.151-2.5.518-.265h0Z" transform="translate(-333.696 -762.924)"/></g></g><g transform="translate(22.187 2.677)"><path class="ad" d="M343.356,746.075c-.612,8.314-2.236,16.419-6.129,23.856a36.347,36.347,0,0,1,11.228,2.74c4.707-7.176,5.691-15.943,5.864-24.323A69.673,69.673,0,0,0,343.356,746.075Z" transform="translate(-337.227 -746.075)"/><g transform="translate(2.092 1.834)"><path class="ae" d="M345.787,748.077c2.041.375,4.048.823,6.061,1.335a2.031,2.031,0,0,0,1.23,2.051l.068.016c-.467,6.586-1.546,13.2-4.766,19.052a.677.677,0,0,0-.07-.031,1.6,1.6,0,0,0-1.9.42.853.853,0,0,0-.049.1,36.537,36.537,0,0,0-6.2-1.57.651.651,0,0,0,.06-.1.765.765,0,0,0-.706-1.125,56.664,56.664,0,0,0,4.934-18.748,1.317,1.317,0,0,0,1.345-1.288C345.79,748.151,345.789,748.114,345.787,748.077Z" transform="translate(-339.51 -748.077)"/></g><path class="ad" d="M343.661,760.578a3.8,3.8,0,1,0,4.18-3.869A4.045,4.045,0,0,0,343.661,760.578Z" transform="translate(-337.766 -746.966)"/><path class="ad" d="M349.558,752.279a.85.85,0,0,0-.976.7,1.1,1.1,0,0,0-.011.134,1.114,1.114,0,0,0,.747,1.233.827.827,0,0,0,.99-.624.852.852,0,0,0,.02-.167A1.184,1.184,0,0,0,349.558,752.279Z" transform="translate(-338.176 -746.594)"/><path class="ad" d="M345.385,768.137a.851.851,0,0,0-1.142.386.788.788,0,0,0-.048.119,1.12,1.12,0,0,0,.349,1.4.83.83,0,0,0,1.132-.312.852.852,0,0,0,.066-.148A1.185,1.185,0,0,0,345.385,768.137Z" transform="translate(-337.801 -747.916)"/><g transform="translate(7.361 10.868)"><path class="h" d="M347.737,760.723l-.66-.121-1.371,2.225.66.121.512.094.66.121.512.094.66.121,1.371-2.225-.66-.121-.965,1.565-.512-.094.965-1.565-.66-.121-.965,1.565-.512-.094Z" transform="translate(-345.298 -758.16)"/><path class="h" d="M349.09,760.734l-.573-2.441-.66-.121.573,2.441Z" transform="translate(-345.479 -757.956)"/><path class="h" d="M350.37,760.969l-.573-2.441-.66-.121.573,2.441Z" transform="translate(-345.586 -757.976)"/><path class="h" d="M346.467,757.937l-1.205,2.256.408,2.411,1.359-2.206h0l.011-.02.047.009.613.112-.573-2.441-.572-.106h0Z" transform="translate(-345.261 -757.937)"/></g></g><g transform="translate(0 15.455)"><path class="aa" d="M324.858,761.087c-2.473-.082-5.433-.3-5.531-.536.068.161,5.848,11.757,5.848,11.757s-30.759,53.029,5.55,55.167c12.626.742,36.838,4.679,43.544-10.189,2.849-6.315.369-15.448-1.763-21.577-1.422-4.1-13.221-23.562-13.221-23.562l5.611-11.6a42.1,42.1,0,0,0-5.563-.161c-1.976.588-3.625,1.82-5.828,1.541-1.045-.137-1.769-.927-2.694-1.3-1.6-.656-1.688-.395-3.337.209-2.132.784-4.445,1.4-6.624.432-2.8-1.241-8.39-1.937-10.877-.235-1.588,1.086-3.509-.662-5.115.053" transform="translate(-313.011 -760.021)"/><path class="af" d="M330.2,773.813c5.508,1.526,24.78,3.459,29.965.794" transform="translate(-314.451 -761.177)"/><path class="af" d="M334.087,763.827a56.479,56.479,0,0,0,3.8,7.6" transform="translate(-314.777 -760.34)"/><path class="af" d="M347.605,771.277V765.1" transform="translate(-315.909 -760.447)"/><line class="af" y1="7.597" x2="4.745" transform="translate(38.204 5.04)"/><path class="ab" d="M351.632,792.827a10.656,10.656,0,0,0-3.092-.557c-.09-1.394-.19-2.8-.3-4.192-1.117-.066-1.676-.087-2.759-.118.11,1.508.22,3.015.319,4.511a9.815,9.815,0,0,0-1.078.255,6.5,6.5,0,0,0-2.268,1.157,5.332,5.332,0,0,0-1.448,1.822,5.263,5.263,0,0,0-.477,2.478l.025.513a5.679,5.679,0,0,0,.388,1.912,4.146,4.146,0,0,0,1.148,1.537,7.331,7.331,0,0,0,2.066,1.189,14.051,14.051,0,0,0,2.213.645c.074,2.237.125,4.5.142,6.743a7.5,7.5,0,0,1-1.035-.19,8.562,8.562,0,0,1-2.332-1.023l-1.249,2.214a10.076,10.076,0,0,0,2.876,1.238,12.17,12.17,0,0,0,1.763.294c0,1.187,0,2.373-.006,3.548,1.117.043,1.664.075,2.792.13.011-1.243.011-2.5,0-3.742a7.37,7.37,0,0,0,1.913-.479,6.474,6.474,0,0,0,2.157-1.3,4.882,4.882,0,0,0,1.23-1.792,5.015,5.015,0,0,0,.367-2.035l-.025-.514a4.852,4.852,0,0,0-.609-2.3,4.594,4.594,0,0,0-1.489-1.544,8.128,8.128,0,0,0-2.184-.963c-.511-.158-1.044-.292-1.613-.417-.084-2.317-.213-4.635-.344-6.953a1.628,1.628,0,0,1,.331.04,13.076,13.076,0,0,1,1.555.4,16.386,16.386,0,0,1,1.528.655,10.376,10.376,0,0,1,1.321.765l1.342-2.325A11.388,11.388,0,0,0,351.632,792.827Zm-2.254,11.835a6.383,6.383,0,0,1,1.5.574,2.8,2.8,0,0,1,.933.826,2.334,2.334,0,0,1,.355,1.2l.015.456a2.47,2.47,0,0,1-1.076,2.091,4.161,4.161,0,0,1-1.806.824c-.021-2.02-.053-4.029-.131-6.037A1.214,1.214,0,0,1,349.378,804.662Zm-3.11-3.409c-.148-.037-.284-.085-.409-.122a5.751,5.751,0,0,1-1.414-.675,2.289,2.289,0,0,1-.806-.881,2.83,2.83,0,0,1-.264-1.179l-.015-.457a2.619,2.619,0,0,1,1.02-2.126,3.781,3.781,0,0,1,1.588-.771C346.092,797.119,346.191,799.2,346.269,801.253Z" transform="translate(-315.316 -762.362)"/></g></g></g></svg>